<svg xmlns="http://www.w3.org/2000/svg" width="1000" height="1000"><rect x="0" y="0" width="1000" height="1000" fill="white"/><rect x="20" y="-60" width="20" height="20" fill="#ff7f0e"/><rect x="300" y="-80" width="20" height="20" fill="#2ca02c"/><rect x="340" y="-60" width="20" height="20" fill="#ff7f0e"/><rect x="60" y="-40" width="20" height="20" fill="#1f77b4"/><rect x="900" y="-60" width="20" height="20" fill="#2ca02c"/><rect x="80" y="-60" width="20" height="20" fill="#ff7f0e"/><rect x="880" y="-40" width="20" height="20" fill="#2ca02c"/><rect x="140" y="-40" width="20" height="20" fill="#d62728"/><rect x="580" y="-60" width="20" height="20" fill="#1f77b4"/><rect x="680" y="-40" width="20" height="20" fill="#1f77b4"/><rect x="340" y="-40" width="20" height="20" fill="#ff7f0e"/><rect x="20" y="-40" width="20" height="20" fill="#ff7f0e"/><rect x="560" y="-40" width="20" height="20" fill="#2ca02c"/><rect x="560" y="-60" width="20" height="20" fill="#1f77b4"/><rect x="220" y="620" width="20" height="20" fill="#2ca02c"/><rect x="720" y="-20" width="20" height="20" fill="#1f77b4"/><rect x="200" y="-40" width="20" height="20" fill="#ff7f0e"/><rect x="200" y="600" width="20" height="20" fill="#2ca02c"/><rect x="200" y="620" width="20" height="20" fill="#2ca02c"/><rect x="200" y="640" width="20" height="20" fill="#2ca02c"/><rect x="200" y="0" width="20" height="20" fill="#ff7f0e"/><rect x="760" y="740" width="20" height="20" fill="#d62728"/><rect x="480" y="900" width="20" height="20" fill="#2ca02c"/><rect x="460" y="900" width="20" height="20" fill="#2ca02c"/><rect x="520" y="-40" width="20" height="20" fill="#1f77b4"/><rect x="440" y="900" width="20" height="20" fill="#2ca02c"/><rect x="160" y="-20" width="20" height="20" fill="#ff7f0e"/><rect x="220" y="660" width="20" height="20" fill="#2ca02c"/><rect x="760" y="-20" width="20" height="20" fill="#1f77b4"/><rect x="920" y="520" width="20" height="20" fill="#d62728"/><rect x="980" y="160" width="20" height="20" fill="#ff7f0e"/><rect x="900" y="700" width="20" height="20" fill="#d62728"/><rect x="200" y="980" width="20" height="20" fill="#ff7f0e"/><rect x="600" y="20" width="20" height="20" fill="#1f77b4"/><rect x="620" y="0" width="20" height="20" fill="#1f77b4"/><rect x="740" y="640" width="20" height="20" fill="#d62728"/><rect x="980" y="340" width="20" height="20" fill="#d62728"/><rect x="580" y="160" width="20" height="20" fill="#1f77b4"/><rect x="0" y="460" width="20" height="20" fill="#d62728"/><rect x="60" y="-20" width="20" height="20" fill="#1f77b4"/><rect x="960" y="460" width="20" height="20" fill="#d62728"/><rect x="780" y="540" width="20" height="20" fill="#d62728"/><rect x="860" y="780" width="20" height="20" fill="#d62728"/><rect x="440" y="740" width="20" height="20" fill="#2ca02c"/><rect x="760" y="540" width="20" height="20" fill="#d62728"/><rect x="900" y="720" width="20" height="20" fill="#d62728"/><rect x="800" y="360" width="20" height="20" fill="#d62728"/><rect x="940" y="580" width="20" height="20" fill="#d62728"/><rect x="500" y="720" width="20" height="20" fill="#2ca02c"/><rect x="880" y="720" width="20" height="20" fill="#d62728"/><rect x="520" y="760" width="20" height="20" fill="#2ca02c"/><rect x="820" y="820" width="20" height="20" fill="#d62728"/><rect x="140" y="600" width="20" height="20" fill="#2ca02c"/><rect x="640" y="820" width="20" height="20" fill="#2ca02c"/><rect x="620" y="860" width="20" height="20" fill="#2ca02c"/><rect x="620" y="820" width="20" height="20" fill="#2ca02c"/><rect x="740" y="820" width="20" height="20" fill="#d62728"/><rect x="200" y="520" width="20" height="20" fill="#2ca02c"/><rect x="820" y="760" width="20" height="20" fill="#d62728"/><rect x="540" y="740" width="20" height="20" fill="#2ca02c"/><rect x="880" y="760" width="20" height="20" fill="#d62728"/><rect x="580" y="800" width="20" height="20" fill="#2ca02c"/><rect x="520" y="880" width="20" height="20" fill="#2ca02c"/><rect x="960" y="440" width="20" height="20" fill="#d62728"/><rect x="480" y="880" width="20" height="20" fill="#2ca02c"/><rect x="640" y="220" width="20" height="20" fill="#1f77b4"/><rect x="860" y="660" width="20" height="20" fill="#d62728"/><rect x="20" y="260" width="20" height="20" fill="#2ca02c"/><rect x="440" y="760" width="20" height="20" fill="#2ca02c"/><rect x="280" y="920" width="20" height="20" fill="#d62728"/><rect x="740" y="740" width="20" height="20" fill="#d62728"/><rect x="740" y="720" width="20" height="20" fill="#d62728"/><rect x="600" y="640" width="20" height="20" fill="#2ca02c"/><rect x="40" y="300" width="20" height="20" fill="#2ca02c"/><rect x="740" y="240" width="20" height="20" fill="#1f77b4"/><rect x="580" y="900" width="20" height="20" fill="#2ca02c"/><rect x="800" y="680" width="20" height="20" fill="#d62728"/><rect x="640" y="860" width="20" height="20" fill="#2ca02c"/><rect x="600" y="840" width="20" height="20" fill="#2ca02c"/><rect x="460" y="720" width="20" height="20" fill="#2ca02c"/><rect x="500" y="780" width="20" height="20" fill="#2ca02c"/><rect x="940" y="380" width="20" height="20" fill="#d62728"/><rect x="960" y="480" width="20" height="20" fill="#d62728"/><rect x="880" y="520" width="20" height="20" fill="#d62728"/><rect x="560" y="700" width="20" height="20" fill="#2ca02c"/><rect x="860" y="120" width="20" height="20" fill="#1f77b4"/><rect x="520" y="740" width="20" height="20" fill="#2ca02c"/><rect x="60" y="320" width="20" height="20" fill="#2ca02c"/><rect x="160" y="200" width="20" height="20" fill="#ff7f0e"/><rect x="640" y="840" width="20" height="20" fill="#2ca02c"/><rect x="820" y="420" width="20" height="20" fill="#d62728"/><rect x="40" y="600" width="20" height="20" fill="#2ca02c"/><rect x="60" y="280" width="20" height="20" fill="#2ca02c"/><rect x="420" y="920" width="20" height="20" fill="#2ca02c"/><rect x="640" y="800" width="20" height="20" fill="#2ca02c"/><rect x="420" y="20" width="20" height="20" fill="#ff7f0e"/><rect x="680" y="440" width="20" height="20" fill="#1f77b4"/><rect x="980" y="420" width="20" height="20" fill="#d62728"/><rect x="640" y="780" width="20" height="20" fill="#2ca02c"/><rect x="900" y="560" width="20" height="20" fill="#d62728"/><rect x="400" y="740" width="20" height="20" fill="#2ca02c"/><rect x="460" y="700" width="20" height="20" fill="#2ca02c"/><rect x="800" y="600" width="20" height="20" fill="#d62728"/><rect x="120" y="980" width="20" height="20" fill="#ff7f0e"/><rect x="100" y="940" width="20" height="20" fill="#ff7f0e"/><rect x="100" y="920" width="20" height="20" fill="#ff7f0e"/><rect x="660" y="480" width="20" height="20" fill="#1f77b4"/><rect x="80" y="620" width="20" height="20" fill="#2ca02c"/><rect x="220" y="980" width="20" height="20" fill="#ff7f0e"/><rect x="820" y="440" width="20" height="20" fill="#d62728"/><rect x="740" y="780" width="20" height="20" fill="#d62728"/><rect x="840" y="800" width="20" height="20" fill="#d62728"/><rect x="140" y="960" width="20" height="20" fill="#ff7f0e"/><rect x="180" y="200" width="20" height="20" fill="#ff7f0e"/><rect x="140" y="-20" width="20" height="20" fill="#ff7f0e"/><rect x="540" y="-60" width="20" height="20" fill="#1f77b4"/><rect x="180" y="20" width="20" height="20" fill="#ff7f0e"/><rect x="960" y="520" width="20" height="20" fill="#d62728"/><rect x="940" y="540" width="20" height="20" fill="#d62728"/><rect x="880" y="540" width="20" height="20" fill="#d62728"/><rect x="200" y="20" width="20" height="20" fill="#ff7f0e"/><rect x="380" y="140" width="20" height="20" fill="#ff7f0e"/><rect x="900" y="480" width="20" height="20" fill="#d62728"/><rect x="400" y="20" width="20" height="20" fill="#ff7f0e"/><rect x="160" y="940" width="20" height="20" fill="#ff7f0e"/><rect x="420" y="940" width="20" height="20" fill="#2ca02c"/><rect x="160" y="920" width="20" height="20" fill="#ff7f0e"/><rect x="140" y="920" width="20" height="20" fill="#ff7f0e"/><rect x="780" y="420" width="20" height="20" fill="#1f77b4"/><rect x="680" y="180" width="20" height="20" fill="#1f77b4"/><rect x="360" y="100" width="20" height="20" fill="#ff7f0e"/><rect x="860" y="420" width="20" height="20" fill="#d62728"/><rect x="420" y="960" width="20" height="20" fill="#2ca02c"/><rect x="40" y="640" width="20" height="20" fill="#2ca02c"/><rect x="40" y="100" width="20" height="20" fill="#ff7f0e"/><rect x="840" y="420" width="20" height="20" fill="#d62728"/><rect x="120" y="920" width="20" height="20" fill="#ff7f0e"/><rect x="400" y="120" width="20" height="20" fill="#ff7f0e"/><rect x="760" y="240" width="20" height="20" fill="#1f77b4"/><rect x="20" y="440" width="20" height="20" fill="#d62728"/><rect x="700" y="200" width="20" height="20" fill="#1f77b4"/><rect x="680" y="980" width="20" height="20" fill="#1f77b4"/><rect x="680" y="160" width="20" height="20" fill="#1f77b4"/><rect x="100" y="900" width="20" height="20" fill="#ff7f0e"/><rect x="800" y="340" width="20" height="20" fill="#d62728"/><rect x="900" y="520" width="20" height="20" fill="#d62728"/><rect x="860" y="500" width="20" height="20" fill="#d62728"/><rect x="300" y="160" width="20" height="20" fill="#ff7f0e"/><rect x="0" y="160" width="20" height="20" fill="#ff7f0e"/><rect x="460" y="140" width="20" height="20" fill="#ff7f0e"/><rect x="480" y="100" width="20" height="20" fill="#ff7f0e"/><rect x="980" y="140" width="20" height="20" fill="#ff7f0e"/><rect x="660" y="180" width="20" height="20" fill="#1f77b4"/><rect x="60" y="260" width="20" height="20" fill="#2ca02c"/><rect x="60" y="620" width="20" height="20" fill="#2ca02c"/><rect x="660" y="260" width="20" height="20" fill="#1f77b4"/><rect x="580" y="640" width="20" height="20" fill="#2ca02c"/><rect x="40" y="260" width="20" height="20" fill="#2ca02c"/><rect x="980" y="920" width="20" height="20" fill="#ff7f0e"/><rect x="240" y="580" width="20" height="20" fill="#2ca02c"/><rect x="200" y="40" width="20" height="20" fill="#ff7f0e"/><rect x="720" y="660" width="20" height="20" fill="#d62728"/><rect x="760" y="260" width="20" height="20" fill="#1f77b4"/><rect x="160" y="540" width="20" height="20" fill="#2ca02c"/><rect x="220" y="0" width="20" height="20" fill="#ff7f0e"/><rect x="180" y="660" width="20" height="20" fill="#2ca02c"/><rect x="280" y="140" width="20" height="20" fill="#ff7f0e"/><rect x="800" y="840" width="20" height="20" fill="#d62728"/><rect x="320" y="100" width="20" height="20" fill="#ff7f0e"/><rect x="200" y="140" width="20" height="20" fill="#ff7f0e"/><rect x="180" y="620" width="20" height="20" fill="#2ca02c"/><rect x="360" y="120" width="20" height="20" fill="#ff7f0e"/><rect x="180" y="920" width="20" height="20" fill="#ff7f0e"/><rect x="880" y="740" width="20" height="20" fill="#d62728"/><rect x="180" y="940" width="20" height="20" fill="#ff7f0e"/><rect x="620" y="240" width="20" height="20" fill="#1f77b4"/><rect x="960" y="880" width="20" height="20" fill="#ff7f0e"/><rect x="300" y="860" width="20" height="20" fill="#d62728"/><rect x="980" y="860" width="20" height="20" fill="#ff7f0e"/><rect x="780" y="640" width="20" height="20" fill="#d62728"/><rect x="400" y="760" width="20" height="20" fill="#2ca02c"/><rect x="820" y="800" width="20" height="20" fill="#d62728"/><rect x="740" y="560" width="20" height="20" fill="#d62728"/><rect x="700" y="180" width="20" height="20" fill="#1f77b4"/><rect x="0" y="340" width="20" height="20" fill="#d62728"/><rect x="860" y="800" width="20" height="20" fill="#d62728"/><rect x="600" y="180" width="20" height="20" fill="#1f77b4"/><rect x="40" y="240" width="20" height="20" fill="#2ca02c"/><rect x="80" y="200" width="20" height="20" fill="#2ca02c"/><rect x="860" y="140" width="20" height="20" fill="#1f77b4"/><rect x="880" y="120" width="20" height="20" fill="#1f77b4"/><rect x="800" y="40" width="20" height="20" fill="#1f77b4"/><rect x="640" y="280" width="20" height="20" fill="#1f77b4"/><rect x="900" y="160" width="20" height="20" fill="#1f77b4"/><rect x="160" y="900" width="20" height="20" fill="#ff7f0e"/><rect x="260" y="920" width="20" height="20" fill="#d62728"/><rect x="180" y="900" width="20" height="20" fill="#ff7f0e"/><rect x="380" y="760" width="20" height="20" fill="#2ca02c"/><rect x="160" y="880" width="20" height="20" fill="#ff7f0e"/><rect x="360" y="140" width="20" height="20" fill="#ff7f0e"/><rect x="560" y="80" width="20" height="20" fill="#1f77b4"/><rect x="860" y="740" width="20" height="20" fill="#d62728"/><rect x="280" y="820" width="20" height="20" fill="#d62728"/><rect x="800" y="980" width="20" height="20" fill="#1f77b4"/><rect x="760" y="980" width="20" height="20" fill="#1f77b4"/><rect x="740" y="760" width="20" height="20" fill="#d62728"/><rect x="620" y="-20" width="20" height="20" fill="#1f77b4"/><rect x="740" y="800" width="20" height="20" fill="#d62728"/><rect x="940" y="500" width="20" height="20" fill="#d62728"/><rect x="740" y="260" width="20" height="20" fill="#1f77b4"/><rect x="820" y="100" width="20" height="20" fill="#1f77b4"/><rect x="920" y="480" width="20" height="20" fill="#d62728"/><rect x="700" y="480" width="20" height="20" fill="#d62728"/><rect x="840" y="80" width="20" height="20" fill="#1f77b4"/><rect x="580" y="20" width="20" height="20" fill="#1f77b4"/><rect x="20" y="80" width="20" height="20" fill="#ff7f0e"/><rect x="440" y="920" width="20" height="20" fill="#2ca02c"/><rect x="860" y="80" width="20" height="20" fill="#1f77b4"/><rect x="600" y="440" width="20" height="20" fill="#1f77b4"/><rect x="860" y="400" width="20" height="20" fill="#d62728"/><rect x="440" y="960" width="20" height="20" fill="#2ca02c"/><rect x="600" y="60" width="20" height="20" fill="#1f77b4"/><rect x="580" y="60" width="20" height="20" fill="#1f77b4"/><rect x="740" y="580" width="20" height="20" fill="#d62728"/><rect x="820" y="0" width="20" height="20" fill="#1f77b4"/><rect x="580" y="200" width="20" height="20" fill="#1f77b4"/><rect x="820" y="400" width="20" height="20" fill="#d62728"/><rect x="800" y="20" width="20" height="20" fill="#1f77b4"/><rect x="40" y="620" width="20" height="20" fill="#2ca02c"/><rect x="940" y="-20" width="20" height="20" fill="#ff7f0e"/><rect x="640" y="0" width="20" height="20" fill="#1f77b4"/><rect x="220" y="160" width="20" height="20" fill="#ff7f0e"/><rect x="740" y="280" width="20" height="20" fill="#1f77b4"/><rect x="340" y="180" width="20" height="20" fill="#ff7f0e"/><rect x="580" y="420" width="20" height="20" fill="#1f77b4"/><rect x="660" y="280" width="20" height="20" fill="#1f77b4"/><rect x="140" y="260" width="20" height="20" fill="#ff7f0e"/><rect x="560" y="200" width="20" height="20" fill="#1f77b4"/><rect x="640" y="440" width="20" height="20" fill="#1f77b4"/><rect x="840" y="120" width="20" height="20" fill="#1f77b4"/><rect x="60" y="300" width="20" height="20" fill="#2ca02c"/><rect x="720" y="320" width="20" height="20" fill="#1f77b4"/><rect x="140" y="220" width="20" height="20" fill="#ff7f0e"/><rect x="180" y="220" width="20" height="20" fill="#ff7f0e"/><rect x="580" y="620" width="20" height="20" fill="#2ca02c"/><rect x="740" y="320" width="20" height="20" fill="#1f77b4"/><rect x="760" y="800" width="20" height="20" fill="#d62728"/><rect x="520" y="100" width="20" height="20" fill="#ff7f0e"/><rect x="120" y="280" width="20" height="20" fill="#ff7f0e"/><rect x="840" y="780" width="20" height="20" fill="#d62728"/><rect x="500" y="100" width="20" height="20" fill="#ff7f0e"/><rect x="880" y="100" width="20" height="20" fill="#1f77b4"/><rect x="800" y="700" width="20" height="20" fill="#d62728"/><rect x="620" y="420" width="20" height="20" fill="#1f77b4"/><rect x="140" y="200" width="20" height="20" fill="#ff7f0e"/><rect x="840" y="60" width="20" height="20" fill="#1f77b4"/><rect x="560" y="660" width="20" height="20" fill="#2ca02c"/><rect x="660" y="460" width="20" height="20" fill="#1f77b4"/><rect x="220" y="60" width="20" height="20" fill="#ff7f0e"/><rect x="20" y="940" width="20" height="20" fill="#ff7f0e"/><rect x="880" y="660" width="20" height="20" fill="#d62728"/><rect x="240" y="180" width="20" height="20" fill="#ff7f0e"/><rect x="640" y="460" width="20" height="20" fill="#1f77b4"/><rect x="700" y="40" width="20" height="20" fill="#1f77b4"/><rect x="880" y="700" width="20" height="20" fill="#d62728"/><rect x="220" y="180" width="20" height="20" fill="#ff7f0e"/><rect x="320" y="860" width="20" height="20" fill="#d62728"/><rect x="640" y="480" width="20" height="20" fill="#1f77b4"/><rect x="780" y="680" width="20" height="20" fill="#d62728"/><rect x="780" y="20" width="20" height="20" fill="#1f77b4"/><rect x="280" y="880" width="20" height="20" fill="#d62728"/><rect x="200" y="560" width="20" height="20" fill="#2ca02c"/><rect x="220" y="900" width="20" height="20" fill="#ff7f0e"/><rect x="340" y="880" width="20" height="20" fill="#d62728"/><rect x="60" y="560" width="20" height="20" fill="#2ca02c"/><rect x="620" y="620" width="20" height="20" fill="#2ca02c"/><rect x="60" y="580" width="20" height="20" fill="#2ca02c"/><rect x="200" y="940" width="20" height="20" fill="#ff7f0e"/><rect x="120" y="540" width="20" height="20" fill="#2ca02c"/><rect x="280" y="180" width="20" height="20" fill="#ff7f0e"/><rect x="640" y="880" width="20" height="20" fill="#2ca02c"/><rect x="120" y="620" width="20" height="20" fill="#2ca02c"/><rect x="180" y="560" width="20" height="20" fill="#2ca02c"/><rect x="780" y="720" width="20" height="20" fill="#d62728"/><rect x="300" y="80" width="20" height="20" fill="#ff7f0e"/><rect x="760" y="660" width="20" height="20" fill="#d62728"/><rect x="660" y="300" width="20" height="20" fill="#1f77b4"/><rect x="740" y="0" width="20" height="20" fill="#1f77b4"/><rect x="160" y="500" width="20" height="20" fill="#2ca02c"/><rect x="660" y="880" width="20" height="20" fill="#2ca02c"/><rect x="140" y="500" width="20" height="20" fill="#2ca02c"/><rect x="720" y="0" width="20" height="20" fill="#1f77b4"/><rect x="820" y="660" width="20" height="20" fill="#d62728"/><rect x="760" y="780" width="20" height="20" fill="#d62728"/><rect x="740" y="340" width="20" height="20" fill="#1f77b4"/><rect x="380" y="80" width="20" height="20" fill="#ff7f0e"/><rect x="200" y="540" width="20" height="20" fill="#2ca02c"/><rect x="400" y="100" width="20" height="20" fill="#ff7f0e"/><rect x="580" y="180" width="20" height="20" fill="#1f77b4"/><rect x="480" y="600" width="20" height="20" fill="#2ca02c"/><rect x="240" y="560" width="20" height="20" fill="#2ca02c"/><rect x="320" y="80" width="20" height="20" fill="#ff7f0e"/><rect x="40" y="140" width="20" height="20" fill="#ff7f0e"/><rect x="200" y="500" width="20" height="20" fill="#2ca02c"/><rect x="620" y="40" width="20" height="20" fill="#1f77b4"/><rect x="860" y="760" width="20" height="20" fill="#d62728"/><rect x="60" y="160" width="20" height="20" fill="#ff7f0e"/><rect x="380" y="180" width="20" height="20" fill="#ff7f0e"/><rect x="580" y="660" width="20" height="20" fill="#2ca02c"/><rect x="340" y="120" width="20" height="20" fill="#ff7f0e"/><rect x="300" y="60" width="20" height="20" fill="#ff7f0e"/><rect x="140" y="180" width="20" height="20" fill="#ff7f0e"/><rect x="660" y="20" width="20" height="20" fill="#1f77b4"/><rect x="700" y="320" width="20" height="20" fill="#1f77b4"/><rect x="500" y="220" width="20" height="20" fill="#ff7f0e"/><rect x="840" y="760" width="20" height="20" fill="#d62728"/><rect x="700" y="20" width="20" height="20" fill="#1f77b4"/><rect x="720" y="300" width="20" height="20" fill="#1f77b4"/><rect x="820" y="740" width="20" height="20" fill="#d62728"/><rect x="760" y="280" width="20" height="20" fill="#1f77b4"/><rect x="620" y="660" width="20" height="20" fill="#2ca02c"/><rect x="20" y="100" width="20" height="20" fill="#ff7f0e"/><rect x="320" y="880" width="20" height="20" fill="#d62728"/><rect x="760" y="340" width="20" height="20" fill="#1f77b4"/><rect x="700" y="240" width="20" height="20" fill="#1f77b4"/><rect x="820" y="680" width="20" height="20" fill="#d62728"/><rect x="500" y="200" width="20" height="20" fill="#ff7f0e"/><rect x="560" y="740" width="20" height="20" fill="#2ca02c"/><rect x="700" y="0" width="20" height="20" fill="#1f77b4"/><rect x="480" y="200" width="20" height="20" fill="#ff7f0e"/><rect x="60" y="120" width="20" height="20" fill="#ff7f0e"/><rect x="700" y="-40" width="20" height="20" fill="#1f77b4"/><rect x="980" y="480" width="20" height="20" fill="#d62728"/><rect x="660" y="200" width="20" height="20" fill="#1f77b4"/><rect x="680" y="780" width="20" height="20" fill="#1f77b4"/><rect x="700" y="220" width="20" height="20" fill="#1f77b4"/><rect x="800" y="640" width="20" height="20" fill="#d62728"/><rect x="940" y="440" width="20" height="20" fill="#d62728"/><rect x="840" y="340" width="20" height="20" fill="#d62728"/><rect x="460" y="880" width="20" height="20" fill="#2ca02c"/><rect x="440" y="140" width="20" height="20" fill="#ff7f0e"/><rect x="540" y="760" width="20" height="20" fill="#2ca02c"/><rect x="220" y="120" width="20" height="20" fill="#ff7f0e"/><rect x="740" y="300" width="20" height="20" fill="#1f77b4"/><rect x="680" y="280" width="20" height="20" fill="#1f77b4"/><rect x="400" y="160" width="20" height="20" fill="#ff7f0e"/><rect x="960" y="500" width="20" height="20" fill="#d62728"/><rect x="640" y="240" width="20" height="20" fill="#1f77b4"/><rect x="560" y="420" width="20" height="20" fill="#1f77b4"/><rect x="660" y="240" width="20" height="20" fill="#1f77b4"/><rect x="100" y="120" width="20" height="20" fill="#ff7f0e"/><rect x="620" y="280" width="20" height="20" fill="#1f77b4"/><rect x="500" y="900" width="20" height="20" fill="#2ca02c"/><rect x="560" y="440" width="20" height="20" fill="#1f77b4"/><rect x="260" y="140" width="20" height="20" fill="#ff7f0e"/><rect x="480" y="740" width="20" height="20" fill="#2ca02c"/><rect x="900" y="540" width="20" height="20" fill="#d62728"/><rect x="280" y="200" width="20" height="20" fill="#2ca02c"/><rect stroke="black" stroke-width="3" x="281.5" y="201.5" width="17" height="17" fill="transparent"/><rect x="220" y="120" width="20" height="20" fill="#ff7f0e"/><rect stroke="black" stroke-width="3" x="221.5" y="121.5" width="17" height="17" fill="transparent"/><rect x="920" y="100" width="20" height="20" fill="#2ca02c"/><rect stroke="black" stroke-width="3" x="921.5" y="101.5" width="17" height="17" fill="transparent"/><rect x="380" y="900" width="20" height="20" fill="#1f77b4"/><rect stroke="black" stroke-width="3" x="381.5" y="901.5" width="17" height="17" fill="transparent"/><rect x="200" y="140" width="20" height="20" fill="black"/><rect x="400" y="820" width="20" height="20" fill="#2ca02c"/><rect stroke="black" stroke-width="3" x="401.5" y="821.5" width="17" height="17" fill="transparent"/><rect x="0" y="0" width="20" height="20" fill="#2ca02c"/><rect stroke="black" stroke-width="3" x="1.5" y="1.5" width="17" height="17" fill="transparent"/><rect x="180" y="320" width="20" height="20" fill="black"/><rect x="560" y="380" width="20" height="20" fill="black"/><rect x="540" y="720" width="20" height="20" fill="#2ca02c"/><rect stroke="black" stroke-width="3" x="541.5" y="721.5" width="17" height="17" fill="transparent"/><rect x="660" y="280" width="20" height="20" fill="#1f77b4"/><rect stroke="black" stroke-width="3" x="661.5" y="281.5" width="17" height="17" fill="transparent"/><rect x="400" y="280" width="20" height="20" fill="black"/><rect x="80" y="820" width="20" height="20" fill="#d62728"/><rect stroke="black" stroke-width="3" x="81.5" y="821.5" width="17" height="17" fill="transparent"/><rect x="580" y="180" width="20" height="20" fill="#ff7f0e"/><rect stroke="black" stroke-width="3" x="581.5" y="181.5" width="17" height="17" fill="transparent"/><rect x="120" y="120" width="20" height="20" fill="#ff7f0e"/><rect stroke="black" stroke-width="3" x="121.5" y="121.5" width="17" height="17" fill="transparent"/><rect x="560" y="80" width="20" height="20" fill="#ff7f0e"/><rect stroke="black" stroke-width="3" x="561.5" y="81.5" width="17" height="17" fill="transparent"/><rect x="740" y="360" width="20" height="20" fill="#d62728"/><rect stroke="black" stroke-width="3" x="741.5" y="361.5" width="17" height="17" fill="transparent"/><rect x="460" y="240" width="20" height="20" fill="#ff7f0e"/><rect stroke="black" stroke-width="3" x="461.5" y="241.5" width="17" height="17" fill="transparent"/><rect x="140" y="780" width="20" height="20" fill="#2ca02c"/><rect stroke="black" stroke-width="3" x="141.5" y="781.5" width="17" height="17" fill="transparent"/><rect x="220" y="420" width="20" height="20" fill="#1f77b4"/><rect stroke="black" stroke-width="3" x="221.5" y="421.5" width="17" height="17" fill="transparent"/><rect x="160" y="60" width="20" height="20" fill="#2ca02c"/><rect stroke="black" stroke-width="3" x="161.5" y="61.5" width="17" height="17" fill="transparent"/><rect x="600" y="640" width="20" height="20" fill="#d62728"/><rect stroke="black" stroke-width="3" x="601.5" y="641.5" width="17" height="17" fill="transparent"/><rect x="840" y="500" width="20" height="20" fill="#2ca02c"/><rect stroke="black" stroke-width="3" x="841.5" y="501.5" width="17" height="17" fill="transparent"/><rect x="700" y="960" width="20" height="20" fill="#d62728"/><rect stroke="black" stroke-width="3" x="701.5" y="961.5" width="17" height="17" fill="transparent"/><rect x="120" y="540" width="20" height="20" fill="#1f77b4"/><rect stroke="black" stroke-width="3" x="121.5" y="541.5" width="17" height="17" fill="transparent"/><rect x="520" y="740" width="20" height="20" fill="#d62728"/><rect stroke="black" stroke-width="3" x="521.5" y="741.5" width="17" height="17" fill="transparent"/><rect x="800" y="560" width="20" height="20" fill="#d62728"/><rect stroke="black" stroke-width="3" x="801.5" y="561.5" width="17" height="17" fill="transparent"/><rect x="860" y="360" width="20" height="20" fill="#1f77b4"/><rect stroke="black" stroke-width="3" x="861.5" y="361.5" width="17" height="17" fill="transparent"/><rect x="720" y="400" width="20" height="20" fill="#ff7f0e"/><rect stroke="black" stroke-width="3" x="721.5" y="401.5" width="17" height="17" fill="transparent"/><rect x="960" y="200" width="20" height="20" fill="#1f77b4"/><rect stroke="black" stroke-width="3" x="961.5" y="201.5" width="17" height="17" fill="transparent"/><rect x="900" y="140" width="20" height="20" fill="#d62728"/><rect stroke="black" stroke-width="3" x="901.5" y="141.5" width="17" height="17" fill="transparent"/><rect x="240" y="780" width="20" height="20" fill="#2ca02c"/><rect stroke="black" stroke-width="3" x="241.5" y="781.5" width="17" height="17" fill="transparent"/><rect x="960" y="180" width="20" height="20" fill="#d62728"/><rect stroke="black" stroke-width="3" x="961.5" y="181.5" width="17" height="17" fill="transparent"/><rect x="20" y="40" width="20" height="20" fill="#d62728"/><rect stroke="black" stroke-width="3" x="21.5" y="41.5" width="17" height="17" fill="transparent"/><rect x="360" y="500" width="20" height="20" fill="#ff7f0e"/><rect stroke="black" stroke-width="3" x="361.5" y="501.5" width="17" height="17" fill="transparent"/><rect x="820" y="800" width="20" height="20" fill="#ff7f0e"/><rect stroke="black" stroke-width="3" x="821.5" y="801.5" width="17" height="17" fill="transparent"/><rect x="580" y="640" width="20" height="20" fill="#1f77b4"/><rect stroke="black" stroke-width="3" x="581.5" y="641.5" width="17" height="17" fill="transparent"/><rect x="920" y="20" width="20" height="20" fill="#ff7f0e"/><rect stroke="black" stroke-width="3" x="921.5" y="21.5" width="17" height="17" fill="transparent"/><rect x="300" y="720" width="20" height="20" fill="#ff7f0e"/><rect stroke="black" stroke-width="3" x="301.5" y="721.5" width="17" height="17" fill="transparent"/><rect x="500" y="780" width="20" height="20" fill="#2ca02c"/><rect stroke="black" stroke-width="3" x="501.5" y="781.5" width="17" height="17" fill="transparent"/><rect x="480" y="120" width="20" height="20" fill="#2ca02c"/><rect stroke="black" stroke-width="3" x="481.5" y="121.5" width="17" height="17" fill="transparent"/><rect x="380" y="940" width="20" height="20" fill="#d62728"/><rect stroke="black" stroke-width="3" x="381.5" y="941.5" width="17" height="17" fill="transparent"/><rect x="460" y="140" width="20" height="20" fill="#d62728"/><rect stroke="black" stroke-width="3" x="461.5" y="141.5" width="17" height="17" fill="transparent"/><rect x="640" y="860" width="20" height="20" fill="#1f77b4"/><rect stroke="black" stroke-width="3" x="641.5" y="861.5" width="17" height="17" fill="transparent"/><rect x="300" y="760" width="20" height="20" fill="#2ca02c"/><rect stroke="black" stroke-width="3" x="301.5" y="761.5" width="17" height="17" fill="transparent"/><rect x="600" y="840" width="20" height="20" fill="#1f77b4"/><rect stroke="black" stroke-width="3" x="601.5" y="841.5" width="17" height="17" fill="transparent"/><rect x="880" y="840" width="20" height="20" fill="#ff7f0e"/><rect stroke="black" stroke-width="3" x="881.5" y="841.5" width="17" height="17" fill="transparent"/><rect x="940" y="540" width="20" height="20" fill="black"/><rect x="600" y="240" width="20" height="20" fill="black"/><rect x="480" y="940" width="20" height="20" fill="black"/></svg>