<svg xmlns="http://www.w3.org/2000/svg" width="1000" height="1000"><rect x="0" y="0" width="1000" height="1000" fill="white"/><rect x="800" y="900" width="20" height="20" fill="#1f77b4"/><rect x="520" y="200" width="20" height="20" fill="#1f77b4"/><rect x="60" y="780" width="20" height="20" fill="#1f77b4"/><rect x="540" y="960" width="20" height="20" fill="#1f77b4"/><rect x="520" y="260" width="20" height="20" fill="#1f77b4"/><rect x="220" y="560" width="20" height="20" fill="#1f77b4"/><rect x="620" y="140" width="20" height="20" fill="#1f77b4"/><rect x="380" y="320" width="20" height="20" fill="#1f77b4"/><rect x="240" y="940" width="20" height="20" fill="#1f77b4"/><rect x="120" y="300" width="20" height="20" fill="#1f77b4"/><rect x="20" y="540" width="20" height="20" fill="#1f77b4"/><rect x="100" y="600" width="20" height="20" fill="#1f77b4"/><rect x="200" y="560" width="20" height="20" fill="#1f77b4"/><rect x="820" y="660" width="20" height="20" fill="#1f77b4"/><rect x="280" y="900" width="20" height="20" fill="#1f77b4"/><rect x="100" y="900" width="20" height="20" fill="#1f77b4"/><rect x="140" y="120" width="20" height="20" fill="#1f77b4"/><rect x="60" y="860" width="20" height="20" fill="#1f77b4"/><rect x="0" y="80" width="20" height="20" fill="#1f77b4"/><rect x="220" y="60" width="20" height="20" fill="#1f77b4"/><rect x="180" y="260" width="20" height="20" fill="#1f77b4"/><rect x="600" y="980" width="20" height="20" fill="#1f77b4"/><rect x="900" y="80" width="20" height="20" fill="#1f77b4"/><rect x="760" y="820" width="20" height="20" fill="#1f77b4"/><rect x="520" y="400" width="20" height="20" fill="#1f77b4"/><rect x="200" y="740" width="20" height="20" fill="#1f77b4"/><rect x="980" y="760" width="20" height="20" fill="#1f77b4"/><rect x="400" y="980" width="20" height="20" fill="#1f77b4"/><rect x="540" y="680" width="20" height="20" fill="#1f77b4"/><rect x="480" y="80" width="20" height="20" fill="#1f77b4"/><rect x="820" y="780" width="20" height="20" fill="#1f77b4"/><rect x="900" y="760" width="20" height="20" fill="#1f77b4"/><rect x="860" y="0" width="20" height="20" fill="#1f77b4"/><rect x="60" y="680" width="20" height="20" fill="#1f77b4"/><rect x="160" y="620" width="20" height="20" fill="#1f77b4"/><rect x="240" y="300" width="20" height="20" fill="#1f77b4"/><rect x="320" y="820" width="20" height="20" fill="#1f77b4"/><rect x="560" y="260" width="20" height="20" fill="#1f77b4"/><rect x="180" y="460" width="20" height="20" fill="#1f77b4"/><rect x="620" y="500" width="20" height="20" fill="#1f77b4"/><rect x="520" y="920" width="20" height="20" fill="#1f77b4"/><rect x="60" y="220" width="20" height="20" fill="#1f77b4"/><rect x="260" y="460" width="20" height="20" fill="#1f77b4"/><rect x="240" y="460" width="20" height="20" fill="#1f77b4"/><rect x="960" y="140" width="20" height="20" fill="#1f77b4"/><rect x="500" y="0" width="20" height="20" fill="#1f77b4"/><rect x="220" y="700" width="20" height="20" fill="#1f77b4"/><rect x="620" y="380" width="20" height="20" fill="#1f77b4"/><rect x="740" y="820" width="20" height="20" fill="#1f77b4"/><rect x="260" y="700" width="20" height="20" fill="#1f77b4"/><rect x="600" y="500" width="20" height="20" fill="#1f77b4"/><rect x="640" y="140" width="20" height="20" fill="#1f77b4"/><rect x="440" y="880" width="20" height="20" fill="#1f77b4"/><rect x="160" y="800" width="20" height="20" fill="#1f77b4"/><rect x="880" y="300" width="20" height="20" fill="#1f77b4"/><rect x="900" y="440" width="20" height="20" fill="#1f77b4"/><rect x="260" y="900" width="20" height="20" fill="#1f77b4"/><rect x="460" y="660" width="20" height="20" fill="#1f77b4"/><rect x="540" y="720" width="20" height="20" fill="#1f77b4"/><rect x="20" y="420" width="20" height="20" fill="#1f77b4"/><rect x="940" y="740" width="20" height="20" fill="#1f77b4"/><rect x="900" y="140" width="20" height="20" fill="#1f77b4"/><rect x="340" y="720" width="20" height="20" fill="#1f77b4"/><rect x="200" y="60" width="20" height="20" fill="#1f77b4"/><rect x="140" y="880" width="20" height="20" fill="#1f77b4"/><rect x="360" y="780" width="20" height="20" fill="#1f77b4"/><rect x="960" y="580" width="20" height="20" fill="#1f77b4"/><rect x="600" y="740" width="20" height="20" fill="#1f77b4"/><rect x="720" y="460" width="20" height="20" fill="#1f77b4"/><rect x="40" y="440" width="20" height="20" fill="#1f77b4"/><rect x="560" y="220" width="20" height="20" fill="#1f77b4"/><rect x="60" y="520" width="20" height="20" fill="#1f77b4"/><rect x="660" y="460" width="20" height="20" fill="#1f77b4"/><rect x="860" y="220" width="20" height="20" fill="#1f77b4"/><rect x="840" y="340" width="20" height="20" fill="#1f77b4"/><rect x="940" y="820" width="20" height="20" fill="#1f77b4"/><rect x="640" y="400" width="20" height="20" fill="#1f77b4"/><rect x="540" y="60" width="20" height="20" fill="#1f77b4"/><rect x="920" y="480" width="20" height="20" fill="#1f77b4"/><rect x="880" y="980" width="20" height="20" fill="#1f77b4"/><rect x="880" y="60" width="20" height="20" fill="#1f77b4"/><rect x="860" y="340" width="20" height="20" fill="#1f77b4"/><rect x="640" y="160" width="20" height="20" fill="#1f77b4"/><rect x="400" y="620" width="20" height="20" fill="#1f77b4"/><rect x="840" y="40" width="20" height="20" fill="#1f77b4"/><rect x="380" y="740" width="20" height="20" fill="#1f77b4"/><rect x="80" y="800" width="20" height="20" fill="#1f77b4"/><rect x="920" y="360" width="20" height="20" fill="#1f77b4"/><rect x="120" y="320" width="20" height="20" fill="#1f77b4"/><rect x="240" y="160" width="20" height="20" fill="#1f77b4"/><rect x="300" y="260" width="20" height="20" fill="#1f77b4"/><rect x="500" y="260" width="20" height="20" fill="#1f77b4"/><rect x="980" y="20" width="20" height="20" fill="#1f77b4"/><rect x="720" y="860" width="20" height="20" fill="#1f77b4"/><rect x="980" y="960" width="20" height="20" fill="#1f77b4"/><rect x="580" y="560" width="20" height="20" fill="#1f77b4"/><rect x="900" y="420" width="20" height="20" fill="#1f77b4"/><rect x="240" y="420" width="20" height="20" fill="#1f77b4"/><rect x="740" y="300" width="20" height="20" fill="#1f77b4"/><rect x="20" y="640" width="20" height="20" fill="#1f77b4"/><rect x="940" y="920" width="20" height="20" fill="#ff7f0e"/><rect x="760" y="340" width="20" height="20" fill="#ff7f0e"/><rect x="320" y="480" width="20" height="20" fill="#ff7f0e"/><rect x="320" y="700" width="20" height="20" fill="#ff7f0e"/><rect x="420" y="140" width="20" height="20" fill="#ff7f0e"/><rect x="800" y="340" width="20" height="20" fill="#ff7f0e"/><rect x="420" y="720" width="20" height="20" fill="#ff7f0e"/><rect x="600" y="240" width="20" height="20" fill="#ff7f0e"/><rect x="180" y="520" width="20" height="20" fill="#ff7f0e"/><rect x="320" y="200" width="20" height="20" fill="#ff7f0e"/><rect x="640" y="420" width="20" height="20" fill="#ff7f0e"/><rect x="980" y="600" width="20" height="20" fill="#ff7f0e"/><rect x="560" y="520" width="20" height="20" fill="#ff7f0e"/><rect x="60" y="940" width="20" height="20" fill="#ff7f0e"/><rect x="780" y="580" width="20" height="20" fill="#ff7f0e"/><rect x="400" y="580" width="20" height="20" fill="#ff7f0e"/><rect x="220" y="720" width="20" height="20" fill="#ff7f0e"/><rect x="80" y="240" width="20" height="20" fill="#ff7f0e"/><rect x="700" y="440" width="20" height="20" fill="#ff7f0e"/><rect x="580" y="900" width="20" height="20" fill="#ff7f0e"/><rect x="600" y="360" width="20" height="20" fill="#ff7f0e"/><rect x="960" y="900" width="20" height="20" fill="#ff7f0e"/><rect x="720" y="740" width="20" height="20" fill="#ff7f0e"/><rect x="320" y="560" width="20" height="20" fill="#ff7f0e"/><rect x="660" y="280" width="20" height="20" fill="#ff7f0e"/><rect x="580" y="620" width="20" height="20" fill="#ff7f0e"/><rect x="740" y="240" width="20" height="20" fill="#ff7f0e"/><rect x="700" y="340" width="20" height="20" fill="#ff7f0e"/><rect x="620" y="680" width="20" height="20" fill="#ff7f0e"/><rect x="840" y="20" width="20" height="20" fill="#ff7f0e"/><rect x="180" y="20" width="20" height="20" fill="#ff7f0e"/><rect x="440" y="720" width="20" height="20" fill="#ff7f0e"/><rect x="480" y="940" width="20" height="20" fill="#ff7f0e"/><rect x="560" y="700" width="20" height="20" fill="#ff7f0e"/><rect x="280" y="820" width="20" height="20" fill="#ff7f0e"/><rect x="0" y="460" width="20" height="20" fill="#ff7f0e"/><rect x="480" y="820" width="20" height="20" fill="#ff7f0e"/><rect x="40" y="240" width="20" height="20" fill="#ff7f0e"/><rect x="640" y="820" width="20" height="20" fill="#ff7f0e"/><rect x="120" y="540" width="20" height="20" fill="#ff7f0e"/><rect x="140" y="220" width="20" height="20" fill="#ff7f0e"/><rect x="720" y="680" width="20" height="20" fill="#ff7f0e"/><rect x="660" y="580" width="20" height="20" fill="#ff7f0e"/><rect x="920" y="460" width="20" height="20" fill="#ff7f0e"/><rect x="580" y="240" width="20" height="20" fill="#ff7f0e"/><rect x="820" y="220" width="20" height="20" fill="#ff7f0e"/><rect x="540" y="640" width="20" height="20" fill="#ff7f0e"/><rect x="280" y="780" width="20" height="20" fill="#ff7f0e"/><rect x="880" y="220" width="20" height="20" fill="#ff7f0e"/><rect x="780" y="820" width="20" height="20" fill="#ff7f0e"/><rect x="880" y="380" width="20" height="20" fill="#ff7f0e"/><rect x="660" y="220" width="20" height="20" fill="#ff7f0e"/><rect x="920" y="600" width="20" height="20" fill="#ff7f0e"/><rect x="120" y="180" width="20" height="20" fill="#ff7f0e"/><rect x="380" y="660" width="20" height="20" fill="#ff7f0e"/><rect x="340" y="400" width="20" height="20" fill="#ff7f0e"/><rect x="180" y="760" width="20" height="20" fill="#ff7f0e"/><rect x="660" y="420" width="20" height="20" fill="#ff7f0e"/><rect x="640" y="740" width="20" height="20" fill="#ff7f0e"/><rect x="940" y="940" width="20" height="20" fill="#ff7f0e"/><rect x="380" y="40" width="20" height="20" fill="#ff7f0e"/><rect x="960" y="260" width="20" height="20" fill="#ff7f0e"/><rect x="280" y="680" width="20" height="20" fill="#ff7f0e"/><rect x="200" y="200" width="20" height="20" fill="#ff7f0e"/><rect x="480" y="0" width="20" height="20" fill="#ff7f0e"/><rect x="760" y="280" width="20" height="20" fill="#ff7f0e"/><rect x="740" y="760" width="20" height="20" fill="#ff7f0e"/><rect x="340" y="640" width="20" height="20" fill="#ff7f0e"/><rect x="580" y="920" width="20" height="20" fill="#ff7f0e"/><rect x="420" y="320" width="20" height="20" fill="#ff7f0e"/><rect x="820" y="60" width="20" height="20" fill="#ff7f0e"/><rect x="720" y="320" width="20" height="20" fill="#ff7f0e"/><rect x="560" y="560" width="20" height="20" fill="#ff7f0e"/><rect x="100" y="180" width="20" height="20" fill="#ff7f0e"/><rect x="940" y="420" width="20" height="20" fill="#ff7f0e"/><rect x="540" y="280" width="20" height="20" fill="#ff7f0e"/><rect x="780" y="260" width="20" height="20" fill="#ff7f0e"/><rect x="660" y="200" width="20" height="20" fill="#ff7f0e"/><rect x="480" y="360" width="20" height="20" fill="#ff7f0e"/><rect x="420" y="900" width="20" height="20" fill="#ff7f0e"/><rect x="460" y="360" width="20" height="20" fill="#ff7f0e"/><rect x="880" y="520" width="20" height="20" fill="#ff7f0e"/><rect x="100" y="0" width="20" height="20" fill="#ff7f0e"/><rect x="560" y="540" width="20" height="20" fill="#ff7f0e"/><rect x="420" y="300" width="20" height="20" fill="#ff7f0e"/><rect x="280" y="580" width="20" height="20" fill="#ff7f0e"/><rect x="440" y="980" width="20" height="20" fill="#ff7f0e"/><rect x="500" y="660" width="20" height="20" fill="#ff7f0e"/><rect x="380" y="920" width="20" height="20" fill="#ff7f0e"/><rect x="80" y="740" width="20" height="20" fill="#ff7f0e"/><rect x="540" y="940" width="20" height="20" fill="#ff7f0e"/><rect x="260" y="380" width="20" height="20" fill="#ff7f0e"/><rect x="540" y="700" width="20" height="20" fill="#ff7f0e"/><rect x="680" y="440" width="20" height="20" fill="#ff7f0e"/><rect x="980" y="440" width="20" height="20" fill="#ff7f0e"/><rect x="80" y="640" width="20" height="20" fill="#ff7f0e"/><rect x="540" y="860" width="20" height="20" fill="#ff7f0e"/><rect x="180" y="640" width="20" height="20" fill="#ff7f0e"/><rect x="460" y="320" width="20" height="20" fill="#ff7f0e"/><rect x="880" y="0" width="20" height="20" fill="#ff7f0e"/><rect x="520" y="820" width="20" height="20" fill="#2ca02c"/><rect x="760" y="140" width="20" height="20" fill="#2ca02c"/><rect x="980" y="280" width="20" height="20" fill="#2ca02c"/><rect x="460" y="200" width="20" height="20" fill="#2ca02c"/><rect x="60" y="580" width="20" height="20" fill="#2ca02c"/><rect x="320" y="300" width="20" height="20" fill="#2ca02c"/><rect x="680" y="720" width="20" height="20" fill="#2ca02c"/><rect x="780" y="900" width="20" height="20" fill="#2ca02c"/><rect x="960" y="960" width="20" height="20" fill="#2ca02c"/><rect x="140" y="820" width="20" height="20" fill="#2ca02c"/><rect x="920" y="420" width="20" height="20" fill="#2ca02c"/><rect x="620" y="400" width="20" height="20" fill="#2ca02c"/><rect x="460" y="480" width="20" height="20" fill="#2ca02c"/><rect x="340" y="480" width="20" height="20" fill="#2ca02c"/><rect x="580" y="380" width="20" height="20" fill="#2ca02c"/><rect x="300" y="240" width="20" height="20" fill="#2ca02c"/><rect x="580" y="860" width="20" height="20" fill="#2ca02c"/><rect x="580" y="220" width="20" height="20" fill="#2ca02c"/><rect x="520" y="440" width="20" height="20" fill="#2ca02c"/><rect x="560" y="720" width="20" height="20" fill="#2ca02c"/><rect x="980" y="560" width="20" height="20" fill="#2ca02c"/><rect x="960" y="780" width="20" height="20" fill="#2ca02c"/><rect x="120" y="800" width="20" height="20" fill="#2ca02c"/><rect x="560" y="480" width="20" height="20" fill="#2ca02c"/><rect x="520" y="20" width="20" height="20" fill="#2ca02c"/><rect x="300" y="880" width="20" height="20" fill="#2ca02c"/><rect x="320" y="760" width="20" height="20" fill="#2ca02c"/><rect x="960" y="240" width="20" height="20" fill="#2ca02c"/><rect x="360" y="620" width="20" height="20" fill="#2ca02c"/><rect x="680" y="360" width="20" height="20" fill="#2ca02c"/><rect x="0" y="160" width="20" height="20" fill="#2ca02c"/><rect x="720" y="200" width="20" height="20" fill="#2ca02c"/><rect x="740" y="900" width="20" height="20" fill="#2ca02c"/><rect x="40" y="960" width="20" height="20" fill="#2ca02c"/><rect x="880" y="360" width="20" height="20" fill="#2ca02c"/><rect x="480" y="900" width="20" height="20" fill="#2ca02c"/><rect x="360" y="920" width="20" height="20" fill="#2ca02c"/><rect x="400" y="280" width="20" height="20" fill="#2ca02c"/><rect x="960" y="100" width="20" height="20" fill="#2ca02c"/><rect x="920" y="160" width="20" height="20" fill="#2ca02c"/><rect x="900" y="800" width="20" height="20" fill="#2ca02c"/><rect x="660" y="140" width="20" height="20" fill="#2ca02c"/><rect x="860" y="840" width="20" height="20" fill="#2ca02c"/><rect x="100" y="420" width="20" height="20" fill="#2ca02c"/><rect x="220" y="820" width="20" height="20" fill="#2ca02c"/><rect x="840" y="0" width="20" height="20" fill="#2ca02c"/><rect x="440" y="20" width="20" height="20" fill="#2ca02c"/><rect x="240" y="540" width="20" height="20" fill="#2ca02c"/><rect x="920" y="800" width="20" height="20" fill="#2ca02c"/><rect x="400" y="940" width="20" height="20" fill="#2ca02c"/><rect x="440" y="600" width="20" height="20" fill="#2ca02c"/><rect x="40" y="500" width="20" height="20" fill="#2ca02c"/><rect x="680" y="560" width="20" height="20" fill="#2ca02c"/><rect x="220" y="320" width="20" height="20" fill="#2ca02c"/><rect x="660" y="80" width="20" height="20" fill="#2ca02c"/><rect x="680" y="900" width="20" height="20" fill="#2ca02c"/><rect x="300" y="100" width="20" height="20" fill="#2ca02c"/><rect x="540" y="900" width="20" height="20" fill="#2ca02c"/><rect x="80" y="560" width="20" height="20" fill="#2ca02c"/><rect x="340" y="520" width="20" height="20" fill="#2ca02c"/><rect x="480" y="200" width="20" height="20" fill="#2ca02c"/><rect x="220" y="580" width="20" height="20" fill="#2ca02c"/><rect x="860" y="600" width="20" height="20" fill="#2ca02c"/><rect x="820" y="160" width="20" height="20" fill="#2ca02c"/><rect x="460" y="100" width="20" height="20" fill="#2ca02c"/><rect x="520" y="140" width="20" height="20" fill="#2ca02c"/><rect x="940" y="900" width="20" height="20" fill="#2ca02c"/><rect x="720" y="360" width="20" height="20" fill="#2ca02c"/><rect x="900" y="860" width="20" height="20" fill="#2ca02c"/><rect x="180" y="700" width="20" height="20" fill="#2ca02c"/><rect x="120" y="460" width="20" height="20" fill="#2ca02c"/><rect x="120" y="940" width="20" height="20" fill="#2ca02c"/><rect x="40" y="260" width="20" height="20" fill="#2ca02c"/><rect x="320" y="500" width="20" height="20" fill="#2ca02c"/><rect x="840" y="660" width="20" height="20" fill="#2ca02c"/><rect x="820" y="820" width="20" height="20" fill="#2ca02c"/><rect x="860" y="900" width="20" height="20" fill="#2ca02c"/><rect x="840" y="960" width="20" height="20" fill="#2ca02c"/><rect x="420" y="960" width="20" height="20" fill="#2ca02c"/><rect x="340" y="880" width="20" height="20" fill="#2ca02c"/><rect x="480" y="920" width="20" height="20" fill="#2ca02c"/><rect x="920" y="500" width="20" height="20" fill="#2ca02c"/><rect x="640" y="440" width="20" height="20" fill="#2ca02c"/><rect x="660" y="480" width="20" height="20" fill="#2ca02c"/><rect x="0" y="380" width="20" height="20" fill="#2ca02c"/><rect x="700" y="400" width="20" height="20" fill="#2ca02c"/><rect x="900" y="900" width="20" height="20" fill="#2ca02c"/><rect x="160" y="680" width="20" height="20" fill="#2ca02c"/><rect x="600" y="880" width="20" height="20" fill="#2ca02c"/><rect x="680" y="680" width="20" height="20" fill="#2ca02c"/><rect x="80" y="960" width="20" height="20" fill="#2ca02c"/><rect x="580" y="100" width="20" height="20" fill="#2ca02c"/><rect x="300" y="660" width="20" height="20" fill="#2ca02c"/><rect x="540" y="760" width="20" height="20" fill="#2ca02c"/><rect x="280" y="100" width="20" height="20" fill="#2ca02c"/><rect x="100" y="820" width="20" height="20" fill="#2ca02c"/><rect x="320" y="100" width="20" height="20" fill="#2ca02c"/><rect x="380" y="260" width="20" height="20" fill="#2ca02c"/><rect x="300" y="300" width="20" height="20" fill="#2ca02c"/><rect x="560" y="800" width="20" height="20" fill="#2ca02c"/><rect x="440" y="180" width="20" height="20" fill="#d62728"/><rect x="60" y="500" width="20" height="20" fill="#d62728"/><rect x="140" y="660" width="20" height="20" fill="#d62728"/><rect x="400" y="40" width="20" height="20" fill="#d62728"/><rect x="560" y="880" width="20" height="20" fill="#d62728"/><rect x="800" y="60" width="20" height="20" fill="#d62728"/><rect x="840" y="380" width="20" height="20" fill="#d62728"/><rect x="260" y="20" width="20" height="20" fill="#d62728"/><rect x="260" y="360" width="20" height="20" fill="#d62728"/><rect x="800" y="400" width="20" height="20" fill="#d62728"/><rect x="200" y="500" width="20" height="20" fill="#d62728"/><rect x="0" y="20" width="20" height="20" fill="#d62728"/><rect x="960" y="440" width="20" height="20" fill="#d62728"/><rect x="20" y="320" width="20" height="20" fill="#d62728"/><rect x="280" y="520" width="20" height="20" fill="#d62728"/><rect x="800" y="280" width="20" height="20" fill="#d62728"/><rect x="320" y="660" width="20" height="20" fill="#d62728"/><rect x="260" y="440" width="20" height="20" fill="#d62728"/><rect x="0" y="480" width="20" height="20" fill="#d62728"/><rect x="420" y="520" width="20" height="20" fill="#d62728"/><rect x="940" y="780" width="20" height="20" fill="#d62728"/><rect x="860" y="160" width="20" height="20" fill="#d62728"/><rect x="860" y="580" width="20" height="20" fill="#d62728"/><rect x="920" y="620" width="20" height="20" fill="#d62728"/><rect x="280" y="660" width="20" height="20" fill="#d62728"/><rect x="360" y="100" width="20" height="20" fill="#d62728"/><rect x="800" y="860" width="20" height="20" fill="#d62728"/><rect x="120" y="880" width="20" height="20" fill="#d62728"/><rect x="180" y="320" width="20" height="20" fill="#d62728"/><rect x="380" y="560" width="20" height="20" fill="#d62728"/><rect x="260" y="40" width="20" height="20" fill="#d62728"/><rect x="460" y="520" width="20" height="20" fill="#d62728"/><rect x="140" y="340" width="20" height="20" fill="#d62728"/><rect x="180" y="940" width="20" height="20" fill="#d62728"/><rect x="20" y="740" width="20" height="20" fill="#d62728"/><rect x="20" y="360" width="20" height="20" fill="#d62728"/><rect x="560" y="620" width="20" height="20" fill="#d62728"/><rect x="500" y="360" width="20" height="20" fill="#d62728"/><rect x="500" y="440" width="20" height="20" fill="#d62728"/><rect x="240" y="500" width="20" height="20" fill="#d62728"/><rect x="520" y="340" width="20" height="20" fill="#d62728"/><rect x="20" y="460" width="20" height="20" fill="#d62728"/><rect x="880" y="560" width="20" height="20" fill="#d62728"/><rect x="240" y="400" width="20" height="20" fill="#d62728"/><rect x="660" y="440" width="20" height="20" fill="#d62728"/><rect x="380" y="700" width="20" height="20" fill="#d62728"/><rect x="20" y="600" width="20" height="20" fill="#d62728"/><rect x="540" y="40" width="20" height="20" fill="#d62728"/><rect x="620" y="600" width="20" height="20" fill="#d62728"/><rect x="140" y="960" width="20" height="20" fill="#d62728"/><rect x="220" y="540" width="20" height="20" fill="#d62728"/><rect x="200" y="660" width="20" height="20" fill="#d62728"/><rect x="580" y="420" width="20" height="20" fill="#d62728"/><rect x="120" y="580" width="20" height="20" fill="#d62728"/><rect x="600" y="720" width="20" height="20" fill="#d62728"/><rect x="460" y="40" width="20" height="20" fill="#d62728"/><rect x="420" y="660" width="20" height="20" fill="#d62728"/><rect x="860" y="700" width="20" height="20" fill="#d62728"/><rect x="820" y="840" width="20" height="20" fill="#d62728"/><rect x="300" y="380" width="20" height="20" fill="#d62728"/><rect x="480" y="760" width="20" height="20" fill="#d62728"/><rect x="600" y="0" width="20" height="20" fill="#d62728"/><rect x="440" y="200" width="20" height="20" fill="#d62728"/><rect x="680" y="160" width="20" height="20" fill="#d62728"/><rect x="920" y="520" width="20" height="20" fill="#d62728"/><rect x="520" y="280" width="20" height="20" fill="#d62728"/><rect x="880" y="280" width="20" height="20" fill="#d62728"/><rect x="980" y="180" width="20" height="20" fill="#d62728"/><rect x="960" y="680" width="20" height="20" fill="#d62728"/><rect x="620" y="900" width="20" height="20" fill="#d62728"/><rect x="580" y="760" width="20" height="20" fill="#d62728"/><rect x="400" y="160" width="20" height="20" fill="#d62728"/><rect x="460" y="380" width="20" height="20" fill="#d62728"/><rect x="960" y="320" width="20" height="20" fill="#d62728"/><rect x="560" y="320" width="20" height="20" fill="#d62728"/><rect x="700" y="120" width="20" height="20" fill="#d62728"/><rect x="840" y="200" width="20" height="20" fill="#d62728"/><rect x="500" y="60" width="20" height="20" fill="#d62728"/><rect x="740" y="540" width="20" height="20" fill="#d62728"/><rect x="660" y="20" width="20" height="20" fill="#d62728"/><rect x="880" y="840" width="20" height="20" fill="#d62728"/><rect x="740" y="20" width="20" height="20" fill="#d62728"/><rect x="640" y="580" width="20" height="20" fill="#d62728"/><rect x="900" y="840" width="20" height="20" fill="#d62728"/><rect x="220" y="380" width="20" height="20" fill="#d62728"/><rect x="580" y="500" width="20" height="20" fill="#d62728"/><rect x="0" y="40" width="20" height="20" fill="#d62728"/><rect x="860" y="100" width="20" height="20" fill="#d62728"/><rect x="720" y="480" width="20" height="20" fill="#d62728"/><rect x="60" y="340" width="20" height="20" fill="#d62728"/><rect x="180" y="540" width="20" height="20" fill="#d62728"/><rect x="860" y="800" width="20" height="20" fill="#d62728"/><rect x="800" y="320" width="20" height="20" fill="#d62728"/><rect x="560" y="200" width="20" height="20" fill="#d62728"/><rect x="240" y="480" width="20" height="20" fill="#d62728"/><rect x="920" y="60" width="20" height="20" fill="#d62728"/><rect x="580" y="940" width="20" height="20" fill="#d62728"/><rect x="680" y="180" width="20" height="20" fill="#d62728"/><rect x="540" y="480" width="20" height="20" fill="#d62728"/><rect x="140" y="60" width="20" height="20" fill="#d62728"/><rect x="200" y="220" width="20" height="20" fill="black"/><rect x="360" y="500" width="20" height="20" fill="black"/><rect x="580" y="480" width="20" height="20" fill="black"/><rect x="660" y="180" width="20" height="20" fill="black"/><rect x="600" y="520" width="20" height="20" fill="black"/><rect x="900" y="660" width="20" height="20" fill="black"/><rect x="240" y="840" width="20" height="20" fill="black"/><rect x="200" y="900" width="20" height="20" fill="black"/><rect x="880" y="260" width="20" height="20" fill="black"/><rect x="100" y="560" width="20" height="20" fill="black"/><rect x="180" y="580" width="20" height="20" fill="black"/><rect x="920" y="20" width="20" height="20" fill="black"/><rect x="800" y="80" width="20" height="20" fill="black"/><rect x="500" y="200" width="20" height="20" fill="black"/><rect x="320" y="100" width="20" height="20" fill="black"/><rect x="520" y="400" width="20" height="20" fill="black"/><rect x="800" y="980" width="20" height="20" fill="black"/><rect x="200" y="540" width="20" height="20" fill="black"/><rect x="640" y="420" width="20" height="20" fill="black"/><rect x="860" y="280" width="20" height="20" fill="black"/><rect x="400" y="300" width="20" height="20" fill="black"/><rect x="560" y="440" width="20" height="20" fill="black"/><rect x="520" y="940" width="20" height="20" fill="black"/><rect x="800" y="160" width="20" height="20" fill="black"/><rect x="140" y="140" width="20" height="20" fill="black"/><rect x="140" y="860" width="20" height="20" fill="black"/><rect x="520" y="780" width="20" height="20" fill="black"/><rect x="460" y="800" width="20" height="20" fill="black"/><rect x="600" y="100" width="20" height="20" fill="black"/><rect x="420" y="820" width="20" height="20" fill="black"/><rect x="420" y="480" width="20" height="20" fill="black"/><rect x="960" y="220" width="20" height="20" fill="black"/><rect x="220" y="740" width="20" height="20" fill="black"/><rect x="540" y="660" width="20" height="20" fill="black"/><rect x="900" y="940" width="20" height="20" fill="black"/><rect x="660" y="300" width="20" height="20" fill="black"/><rect x="440" y="340" width="20" height="20" fill="black"/><rect x="360" y="300" width="20" height="20" fill="black"/><rect x="640" y="700" width="20" height="20" fill="black"/><rect x="300" y="640" width="20" height="20" fill="black"/><rect x="500" y="140" width="20" height="20" fill="black"/><rect x="560" y="520" width="20" height="20" fill="black"/><rect x="120" y="940" width="20" height="20" fill="black"/><rect x="180" y="220" width="20" height="20" fill="black"/><rect x="80" y="680" width="20" height="20" fill="black"/><rect x="400" y="580" width="20" height="20" fill="black"/><rect x="20" y="620" width="20" height="20" fill="black"/><rect x="140" y="660" width="20" height="20" fill="black"/><rect x="160" y="580" width="20" height="20" fill="black"/><rect x="740" y="300" width="20" height="20" fill="black"/></svg>