<svg xmlns="http://www.w3.org/2000/svg" width="1000" height="1000"><rect x="0" y="0" width="1000" height="1000" fill="white"/><rect x="280" y="760" width="20" height="20" fill="#1f77b4"/><rect x="340" y="300" width="20" height="20" fill="#1f77b4"/><rect x="460" y="300" width="20" height="20" fill="#1f77b4"/><rect x="20" y="420" width="20" height="20" fill="#1f77b4"/><rect x="100" y="320" width="20" height="20" fill="#1f77b4"/><rect x="580" y="900" width="20" height="20" fill="#1f77b4"/><rect x="640" y="480" width="20" height="20" fill="#1f77b4"/><rect x="200" y="300" width="20" height="20" fill="#1f77b4"/><rect x="580" y="500" width="20" height="20" fill="#1f77b4"/><rect x="400" y="340" width="20" height="20" fill="#1f77b4"/><rect x="160" y="380" width="20" height="20" fill="#1f77b4"/><rect x="0" y="320" width="20" height="20" fill="#1f77b4"/><rect x="20" y="320" width="20" height="20" fill="#1f77b4"/><rect x="80" y="800" width="20" height="20" fill="#1f77b4"/><rect x="400" y="80" width="20" height="20" fill="#1f77b4"/><rect x="500" y="820" width="20" height="20" fill="#1f77b4"/><rect x="560" y="440" width="20" height="20" fill="#1f77b4"/><rect x="220" y="440" width="20" height="20" fill="#1f77b4"/><rect x="600" y="140" width="20" height="20" fill="#1f77b4"/><rect x="920" y="620" width="20" height="20" fill="#1f77b4"/><rect x="220" y="260" width="20" height="20" fill="#1f77b4"/><rect x="600" y="240" width="20" height="20" fill="#1f77b4"/><rect x="840" y="20" width="20" height="20" fill="#1f77b4"/><rect x="800" y="20" width="20" height="20" fill="#1f77b4"/><rect x="380" y="460" width="20" height="20" fill="#1f77b4"/><rect x="140" y="900" width="20" height="20" fill="#1f77b4"/><rect x="860" y="900" width="20" height="20" fill="#1f77b4"/><rect x="460" y="320" width="20" height="20" fill="#1f77b4"/><rect x="220" y="200" width="20" height="20" fill="#1f77b4"/><rect x="680" y="40" width="20" height="20" fill="#1f77b4"/><rect x="60" y="580" width="20" height="20" fill="#1f77b4"/><rect x="300" y="880" width="20" height="20" fill="#1f77b4"/><rect x="340" y="540" width="20" height="20" fill="#1f77b4"/><rect x="740" y="140" width="20" height="20" fill="#1f77b4"/><rect x="40" y="280" width="20" height="20" fill="#1f77b4"/><rect x="900" y="660" width="20" height="20" fill="#1f77b4"/><rect x="20" y="300" width="20" height="20" fill="#1f77b4"/><rect x="540" y="940" width="20" height="20" fill="#1f77b4"/><rect x="660" y="800" width="20" height="20" fill="#1f77b4"/><rect x="100" y="440" width="20" height="20" fill="#1f77b4"/><rect x="480" y="680" width="20" height="20" fill="#1f77b4"/><rect x="920" y="220" width="20" height="20" fill="#1f77b4"/><rect x="840" y="700" width="20" height="20" fill="#1f77b4"/><rect x="440" y="820" width="20" height="20" fill="#1f77b4"/><rect x="120" y="680" width="20" height="20" fill="#1f77b4"/><rect x="500" y="480" width="20" height="20" fill="#1f77b4"/><rect x="100" y="520" width="20" height="20" fill="#1f77b4"/><rect x="760" y="380" width="20" height="20" fill="#1f77b4"/><rect x="440" y="580" width="20" height="20" fill="#1f77b4"/><rect x="800" y="180" width="20" height="20" fill="#1f77b4"/><rect x="480" y="300" width="20" height="20" fill="#1f77b4"/><rect x="600" y="400" width="20" height="20" fill="#1f77b4"/><rect x="800" y="780" width="20" height="20" fill="#1f77b4"/><rect x="960" y="100" width="20" height="20" fill="#1f77b4"/><rect x="280" y="140" width="20" height="20" fill="#1f77b4"/><rect x="340" y="640" width="20" height="20" fill="#1f77b4"/><rect x="500" y="460" width="20" height="20" fill="#1f77b4"/><rect x="560" y="320" width="20" height="20" fill="#1f77b4"/><rect x="960" y="700" width="20" height="20" fill="#1f77b4"/><rect x="160" y="800" width="20" height="20" fill="#1f77b4"/><rect x="420" y="140" width="20" height="20" fill="#1f77b4"/><rect x="740" y="940" width="20" height="20" fill="#1f77b4"/><rect x="640" y="360" width="20" height="20" fill="#1f77b4"/><rect x="300" y="180" width="20" height="20" fill="#1f77b4"/><rect x="0" y="900" width="20" height="20" fill="#1f77b4"/><rect x="160" y="500" width="20" height="20" fill="#1f77b4"/><rect x="400" y="140" width="20" height="20" fill="#1f77b4"/><rect x="920" y="460" width="20" height="20" fill="#1f77b4"/><rect x="940" y="80" width="20" height="20" fill="#1f77b4"/><rect x="160" y="880" width="20" height="20" fill="#1f77b4"/><rect x="600" y="500" width="20" height="20" fill="#1f77b4"/><rect x="400" y="840" width="20" height="20" fill="#1f77b4"/><rect x="500" y="860" width="20" height="20" fill="#1f77b4"/><rect x="620" y="300" width="20" height="20" fill="#1f77b4"/><rect x="460" y="440" width="20" height="20" fill="#1f77b4"/><rect x="680" y="720" width="20" height="20" fill="#1f77b4"/><rect x="900" y="500" width="20" height="20" fill="#1f77b4"/><rect x="40" y="680" width="20" height="20" fill="#1f77b4"/><rect x="140" y="580" width="20" height="20" fill="#1f77b4"/><rect x="620" y="40" width="20" height="20" fill="#1f77b4"/><rect x="780" y="840" width="20" height="20" fill="#1f77b4"/><rect x="400" y="520" width="20" height="20" fill="#1f77b4"/><rect x="40" y="320" width="20" height="20" fill="#1f77b4"/><rect x="180" y="620" width="20" height="20" fill="#1f77b4"/><rect x="560" y="860" width="20" height="20" fill="#1f77b4"/><rect x="660" y="980" width="20" height="20" fill="#1f77b4"/><rect x="500" y="980" width="20" height="20" fill="#1f77b4"/><rect x="620" y="760" width="20" height="20" fill="#1f77b4"/><rect x="480" y="160" width="20" height="20" fill="#1f77b4"/><rect x="540" y="260" width="20" height="20" fill="#1f77b4"/><rect x="40" y="940" width="20" height="20" fill="#1f77b4"/><rect x="400" y="620" width="20" height="20" fill="#1f77b4"/><rect x="100" y="140" width="20" height="20" fill="#1f77b4"/><rect x="600" y="920" width="20" height="20" fill="#1f77b4"/><rect x="660" y="880" width="20" height="20" fill="#1f77b4"/><rect x="880" y="860" width="20" height="20" fill="#1f77b4"/><rect x="660" y="780" width="20" height="20" fill="#1f77b4"/><rect x="680" y="940" width="20" height="20" fill="#1f77b4"/><rect x="0" y="840" width="20" height="20" fill="#1f77b4"/><rect x="640" y="180" width="20" height="20" fill="#1f77b4"/><rect x="140" y="240" width="20" height="20" fill="#ff7f0e"/><rect x="500" y="700" width="20" height="20" fill="#ff7f0e"/><rect x="260" y="520" width="20" height="20" fill="#ff7f0e"/><rect x="380" y="200" width="20" height="20" fill="#ff7f0e"/><rect x="220" y="380" width="20" height="20" fill="#ff7f0e"/><rect x="220" y="980" width="20" height="20" fill="#ff7f0e"/><rect x="180" y="580" width="20" height="20" fill="#ff7f0e"/><rect x="460" y="420" width="20" height="20" fill="#ff7f0e"/><rect x="580" y="160" width="20" height="20" fill="#ff7f0e"/><rect x="120" y="780" width="20" height="20" fill="#ff7f0e"/><rect x="480" y="400" width="20" height="20" fill="#ff7f0e"/><rect x="560" y="160" width="20" height="20" fill="#ff7f0e"/><rect x="440" y="940" width="20" height="20" fill="#ff7f0e"/><rect x="900" y="520" width="20" height="20" fill="#ff7f0e"/><rect x="560" y="220" width="20" height="20" fill="#ff7f0e"/><rect x="700" y="480" width="20" height="20" fill="#ff7f0e"/><rect x="400" y="440" width="20" height="20" fill="#ff7f0e"/><rect x="0" y="180" width="20" height="20" fill="#ff7f0e"/><rect x="20" y="20" width="20" height="20" fill="#ff7f0e"/><rect x="140" y="820" width="20" height="20" fill="#ff7f0e"/><rect x="840" y="160" width="20" height="20" fill="#ff7f0e"/><rect x="80" y="680" width="20" height="20" fill="#ff7f0e"/><rect x="820" y="520" width="20" height="20" fill="#ff7f0e"/><rect x="780" y="280" width="20" height="20" fill="#ff7f0e"/><rect x="420" y="700" width="20" height="20" fill="#ff7f0e"/><rect x="600" y="0" width="20" height="20" fill="#ff7f0e"/><rect x="60" y="640" width="20" height="20" fill="#ff7f0e"/><rect x="620" y="960" width="20" height="20" fill="#ff7f0e"/><rect x="860" y="340" width="20" height="20" fill="#ff7f0e"/><rect x="560" y="120" width="20" height="20" fill="#ff7f0e"/><rect x="120" y="280" width="20" height="20" fill="#ff7f0e"/><rect x="180" y="240" width="20" height="20" fill="#ff7f0e"/><rect x="420" y="860" width="20" height="20" fill="#ff7f0e"/><rect x="660" y="320" width="20" height="20" fill="#ff7f0e"/><rect x="900" y="900" width="20" height="20" fill="#ff7f0e"/><rect x="720" y="680" width="20" height="20" fill="#ff7f0e"/><rect x="220" y="860" width="20" height="20" fill="#ff7f0e"/><rect x="400" y="420" width="20" height="20" fill="#ff7f0e"/><rect x="240" y="200" width="20" height="20" fill="#ff7f0e"/><rect x="400" y="300" width="20" height="20" fill="#ff7f0e"/><rect x="260" y="40" width="20" height="20" fill="#ff7f0e"/><rect x="20" y="820" width="20" height="20" fill="#ff7f0e"/><rect x="460" y="280" width="20" height="20" fill="#ff7f0e"/><rect x="160" y="0" width="20" height="20" fill="#ff7f0e"/><rect x="680" y="680" width="20" height="20" fill="#ff7f0e"/><rect x="700" y="680" width="20" height="20" fill="#ff7f0e"/><rect x="900" y="40" width="20" height="20" fill="#ff7f0e"/><rect x="420" y="120" width="20" height="20" fill="#ff7f0e"/><rect x="600" y="780" width="20" height="20" fill="#ff7f0e"/><rect x="860" y="540" width="20" height="20" fill="#ff7f0e"/><rect x="760" y="640" width="20" height="20" fill="#ff7f0e"/><rect x="520" y="480" width="20" height="20" fill="#ff7f0e"/><rect x="0" y="660" width="20" height="20" fill="#ff7f0e"/><rect x="260" y="20" width="20" height="20" fill="#ff7f0e"/><rect x="480" y="220" width="20" height="20" fill="#ff7f0e"/><rect x="900" y="60" width="20" height="20" fill="#ff7f0e"/><rect x="100" y="20" width="20" height="20" fill="#ff7f0e"/><rect x="640" y="60" width="20" height="20" fill="#ff7f0e"/><rect x="360" y="580" width="20" height="20" fill="#ff7f0e"/><rect x="800" y="0" width="20" height="20" fill="#ff7f0e"/><rect x="200" y="460" width="20" height="20" fill="#ff7f0e"/><rect x="920" y="320" width="20" height="20" fill="#ff7f0e"/><rect x="600" y="600" width="20" height="20" fill="#ff7f0e"/><rect x="660" y="500" width="20" height="20" fill="#ff7f0e"/><rect x="400" y="240" width="20" height="20" fill="#ff7f0e"/><rect x="200" y="540" width="20" height="20" fill="#ff7f0e"/><rect x="0" y="520" width="20" height="20" fill="#ff7f0e"/><rect x="700" y="640" width="20" height="20" fill="#ff7f0e"/><rect x="580" y="200" width="20" height="20" fill="#ff7f0e"/><rect x="580" y="40" width="20" height="20" fill="#ff7f0e"/><rect x="920" y="680" width="20" height="20" fill="#ff7f0e"/><rect x="580" y="600" width="20" height="20" fill="#ff7f0e"/><rect x="980" y="260" width="20" height="20" fill="#ff7f0e"/><rect x="760" y="740" width="20" height="20" fill="#ff7f0e"/><rect x="740" y="580" width="20" height="20" fill="#ff7f0e"/><rect x="980" y="180" width="20" height="20" fill="#ff7f0e"/><rect x="400" y="600" width="20" height="20" fill="#ff7f0e"/><rect x="940" y="560" width="20" height="20" fill="#ff7f0e"/><rect x="620" y="700" width="20" height="20" fill="#ff7f0e"/><rect x="500" y="60" width="20" height="20" fill="#ff7f0e"/><rect x="40" y="640" width="20" height="20" fill="#ff7f0e"/><rect x="920" y="420" width="20" height="20" fill="#ff7f0e"/><rect x="400" y="400" width="20" height="20" fill="#ff7f0e"/><rect x="100" y="560" width="20" height="20" fill="#ff7f0e"/><rect x="200" y="440" width="20" height="20" fill="#ff7f0e"/><rect x="980" y="660" width="20" height="20" fill="#ff7f0e"/><rect x="40" y="260" width="20" height="20" fill="#ff7f0e"/><rect x="360" y="220" width="20" height="20" fill="#ff7f0e"/><rect x="560" y="480" width="20" height="20" fill="#ff7f0e"/><rect x="720" y="380" width="20" height="20" fill="#ff7f0e"/><rect x="980" y="0" width="20" height="20" fill="#ff7f0e"/><rect x="640" y="440" width="20" height="20" fill="#ff7f0e"/><rect x="980" y="220" width="20" height="20" fill="#ff7f0e"/><rect x="620" y="620" width="20" height="20" fill="#ff7f0e"/><rect x="860" y="580" width="20" height="20" fill="#ff7f0e"/><rect x="200" y="980" width="20" height="20" fill="#ff7f0e"/><rect x="720" y="800" width="20" height="20" fill="#ff7f0e"/><rect x="500" y="720" width="20" height="20" fill="#ff7f0e"/><rect x="80" y="960" width="20" height="20" fill="#ff7f0e"/><rect x="880" y="180" width="20" height="20" fill="#ff7f0e"/><rect x="580" y="720" width="20" height="20" fill="#2ca02c"/><rect x="340" y="520" width="20" height="20" fill="#2ca02c"/><rect x="260" y="980" width="20" height="20" fill="#2ca02c"/><rect x="880" y="640" width="20" height="20" fill="#2ca02c"/><rect x="640" y="920" width="20" height="20" fill="#2ca02c"/><rect x="640" y="600" width="20" height="20" fill="#2ca02c"/><rect x="680" y="120" width="20" height="20" fill="#2ca02c"/><rect x="20" y="980" width="20" height="20" fill="#2ca02c"/><rect x="860" y="280" width="20" height="20" fill="#2ca02c"/><rect x="880" y="320" width="20" height="20" fill="#2ca02c"/><rect x="520" y="240" width="20" height="20" fill="#2ca02c"/><rect x="540" y="460" width="20" height="20" fill="#2ca02c"/><rect x="640" y="460" width="20" height="20" fill="#2ca02c"/><rect x="440" y="480" width="20" height="20" fill="#2ca02c"/><rect x="160" y="440" width="20" height="20" fill="#2ca02c"/><rect x="980" y="440" width="20" height="20" fill="#2ca02c"/><rect x="800" y="400" width="20" height="20" fill="#2ca02c"/><rect x="0" y="220" width="20" height="20" fill="#2ca02c"/><rect x="660" y="860" width="20" height="20" fill="#2ca02c"/><rect x="880" y="360" width="20" height="20" fill="#2ca02c"/><rect x="380" y="940" width="20" height="20" fill="#2ca02c"/><rect x="240" y="260" width="20" height="20" fill="#2ca02c"/><rect x="540" y="100" width="20" height="20" fill="#2ca02c"/><rect x="820" y="20" width="20" height="20" fill="#2ca02c"/><rect x="520" y="180" width="20" height="20" fill="#2ca02c"/><rect x="800" y="620" width="20" height="20" fill="#2ca02c"/><rect x="920" y="480" width="20" height="20" fill="#2ca02c"/><rect x="540" y="180" width="20" height="20" fill="#2ca02c"/><rect x="920" y="840" width="20" height="20" fill="#2ca02c"/><rect x="700" y="20" width="20" height="20" fill="#2ca02c"/><rect x="840" y="460" width="20" height="20" fill="#2ca02c"/><rect x="380" y="260" width="20" height="20" fill="#2ca02c"/><rect x="540" y="280" width="20" height="20" fill="#2ca02c"/><rect x="400" y="220" width="20" height="20" fill="#2ca02c"/><rect x="940" y="480" width="20" height="20" fill="#2ca02c"/><rect x="400" y="760" width="20" height="20" fill="#2ca02c"/><rect x="580" y="420" width="20" height="20" fill="#2ca02c"/><rect x="360" y="880" width="20" height="20" fill="#2ca02c"/><rect x="140" y="460" width="20" height="20" fill="#2ca02c"/><rect x="580" y="180" width="20" height="20" fill="#2ca02c"/><rect x="560" y="700" width="20" height="20" fill="#2ca02c"/><rect x="60" y="980" width="20" height="20" fill="#2ca02c"/><rect x="560" y="720" width="20" height="20" fill="#2ca02c"/><rect x="440" y="880" width="20" height="20" fill="#2ca02c"/><rect x="60" y="680" width="20" height="20" fill="#2ca02c"/><rect x="500" y="560" width="20" height="20" fill="#2ca02c"/><rect x="980" y="700" width="20" height="20" fill="#2ca02c"/><rect x="580" y="920" width="20" height="20" fill="#2ca02c"/><rect x="620" y="820" width="20" height="20" fill="#2ca02c"/><rect x="360" y="140" width="20" height="20" fill="#2ca02c"/><rect x="500" y="300" width="20" height="20" fill="#2ca02c"/><rect x="540" y="680" width="20" height="20" fill="#2ca02c"/><rect x="20" y="200" width="20" height="20" fill="#2ca02c"/><rect x="800" y="920" width="20" height="20" fill="#2ca02c"/><rect x="20" y="460" width="20" height="20" fill="#2ca02c"/><rect x="420" y="540" width="20" height="20" fill="#2ca02c"/><rect x="500" y="360" width="20" height="20" fill="#2ca02c"/><rect x="160" y="900" width="20" height="20" fill="#2ca02c"/><rect x="580" y="660" width="20" height="20" fill="#2ca02c"/><rect x="680" y="700" width="20" height="20" fill="#2ca02c"/><rect x="700" y="100" width="20" height="20" fill="#2ca02c"/><rect x="900" y="320" width="20" height="20" fill="#2ca02c"/><rect x="60" y="740" width="20" height="20" fill="#2ca02c"/><rect x="460" y="660" width="20" height="20" fill="#2ca02c"/><rect x="80" y="700" width="20" height="20" fill="#2ca02c"/><rect x="440" y="960" width="20" height="20" fill="#2ca02c"/><rect x="920" y="800" width="20" height="20" fill="#2ca02c"/><rect x="580" y="740" width="20" height="20" fill="#2ca02c"/><rect x="940" y="600" width="20" height="20" fill="#2ca02c"/><rect x="0" y="460" width="20" height="20" fill="#2ca02c"/><rect x="740" y="520" width="20" height="20" fill="#2ca02c"/><rect x="280" y="360" width="20" height="20" fill="#2ca02c"/><rect x="840" y="740" width="20" height="20" fill="#2ca02c"/><rect x="40" y="720" width="20" height="20" fill="#2ca02c"/><rect x="680" y="400" width="20" height="20" fill="#2ca02c"/><rect x="960" y="400" width="20" height="20" fill="#2ca02c"/><rect x="640" y="420" width="20" height="20" fill="#2ca02c"/><rect x="540" y="860" width="20" height="20" fill="#2ca02c"/><rect x="180" y="520" width="20" height="20" fill="#2ca02c"/><rect x="120" y="940" width="20" height="20" fill="#2ca02c"/><rect x="140" y="400" width="20" height="20" fill="#2ca02c"/><rect x="60" y="360" width="20" height="20" fill="#2ca02c"/><rect x="840" y="900" width="20" height="20" fill="#2ca02c"/><rect x="860" y="860" width="20" height="20" fill="#2ca02c"/><rect x="540" y="60" width="20" height="20" fill="#2ca02c"/><rect x="40" y="600" width="20" height="20" fill="#2ca02c"/><rect x="480" y="700" width="20" height="20" fill="#2ca02c"/><rect x="660" y="280" width="20" height="20" fill="#2ca02c"/><rect x="960" y="860" width="20" height="20" fill="#2ca02c"/><rect x="880" y="0" width="20" height="20" fill="#2ca02c"/><rect x="440" y="540" width="20" height="20" fill="#2ca02c"/><rect x="60" y="380" width="20" height="20" fill="#2ca02c"/><rect x="60" y="440" width="20" height="20" fill="#2ca02c"/><rect x="920" y="120" width="20" height="20" fill="#2ca02c"/><rect x="900" y="380" width="20" height="20" fill="#2ca02c"/><rect x="880" y="280" width="20" height="20" fill="#2ca02c"/><rect x="640" y="380" width="20" height="20" fill="#2ca02c"/><rect x="380" y="660" width="20" height="20" fill="#2ca02c"/><rect x="260" y="680" width="20" height="20" fill="#2ca02c"/><rect x="480" y="0" width="20" height="20" fill="#2ca02c"/><rect x="240" y="620" width="20" height="20" fill="#d62728"/><rect x="820" y="880" width="20" height="20" fill="#d62728"/><rect x="80" y="520" width="20" height="20" fill="#d62728"/><rect x="940" y="500" width="20" height="20" fill="#d62728"/><rect x="600" y="300" width="20" height="20" fill="#d62728"/><rect x="760" y="120" width="20" height="20" fill="#d62728"/><rect x="740" y="440" width="20" height="20" fill="#d62728"/><rect x="80" y="780" width="20" height="20" fill="#d62728"/><rect x="600" y="580" width="20" height="20" fill="#d62728"/><rect x="620" y="920" width="20" height="20" fill="#d62728"/><rect x="300" y="80" width="20" height="20" fill="#d62728"/><rect x="20" y="940" width="20" height="20" fill="#d62728"/><rect x="460" y="140" width="20" height="20" fill="#d62728"/><rect x="760" y="60" width="20" height="20" fill="#d62728"/><rect x="40" y="560" width="20" height="20" fill="#d62728"/><rect x="180" y="780" width="20" height="20" fill="#d62728"/><rect x="340" y="140" width="20" height="20" fill="#d62728"/><rect x="820" y="320" width="20" height="20" fill="#d62728"/><rect x="800" y="380" width="20" height="20" fill="#d62728"/><rect x="920" y="160" width="20" height="20" fill="#d62728"/><rect x="120" y="540" width="20" height="20" fill="#d62728"/><rect x="400" y="880" width="20" height="20" fill="#d62728"/><rect x="960" y="980" width="20" height="20" fill="#d62728"/><rect x="220" y="640" width="20" height="20" fill="#d62728"/><rect x="420" y="420" width="20" height="20" fill="#d62728"/><rect x="140" y="760" width="20" height="20" fill="#d62728"/><rect x="700" y="700" width="20" height="20" fill="#d62728"/><rect x="580" y="640" width="20" height="20" fill="#d62728"/><rect x="80" y="260" width="20" height="20" fill="#d62728"/><rect x="800" y="340" width="20" height="20" fill="#d62728"/><rect x="260" y="340" width="20" height="20" fill="#d62728"/><rect x="80" y="560" width="20" height="20" fill="#d62728"/><rect x="880" y="240" width="20" height="20" fill="#d62728"/><rect x="780" y="760" width="20" height="20" fill="#d62728"/><rect x="520" y="400" width="20" height="20" fill="#d62728"/><rect x="640" y="260" width="20" height="20" fill="#d62728"/><rect x="640" y="220" width="20" height="20" fill="#d62728"/><rect x="840" y="720" width="20" height="20" fill="#d62728"/><rect x="920" y="860" width="20" height="20" fill="#d62728"/><rect x="660" y="640" width="20" height="20" fill="#d62728"/><rect x="840" y="260" width="20" height="20" fill="#d62728"/><rect x="340" y="320" width="20" height="20" fill="#d62728"/><rect x="420" y="220" width="20" height="20" fill="#d62728"/><rect x="960" y="280" width="20" height="20" fill="#d62728"/><rect x="180" y="320" width="20" height="20" fill="#d62728"/><rect x="960" y="200" width="20" height="20" fill="#d62728"/><rect x="380" y="540" width="20" height="20" fill="#d62728"/><rect x="320" y="20" width="20" height="20" fill="#d62728"/><rect x="580" y="120" width="20" height="20" fill="#d62728"/><rect x="420" y="780" width="20" height="20" fill="#d62728"/><rect x="840" y="300" width="20" height="20" fill="#d62728"/><rect x="480" y="900" width="20" height="20" fill="#d62728"/><rect x="200" y="0" width="20" height="20" fill="#d62728"/><rect x="380" y="680" width="20" height="20" fill="#d62728"/><rect x="220" y="960" width="20" height="20" fill="#d62728"/><rect x="420" y="200" width="20" height="20" fill="#d62728"/><rect x="960" y="180" width="20" height="20" fill="#d62728"/><rect x="240" y="680" width="20" height="20" fill="#d62728"/><rect x="880" y="760" width="20" height="20" fill="#d62728"/><rect x="980" y="340" width="20" height="20" fill="#d62728"/><rect x="0" y="680" width="20" height="20" fill="#d62728"/><rect x="40" y="380" width="20" height="20" fill="#d62728"/><rect x="620" y="220" width="20" height="20" fill="#d62728"/><rect x="300" y="480" width="20" height="20" fill="#d62728"/><rect x="240" y="180" width="20" height="20" fill="#d62728"/><rect x="980" y="120" width="20" height="20" fill="#d62728"/><rect x="900" y="20" width="20" height="20" fill="#d62728"/><rect x="520" y="820" width="20" height="20" fill="#d62728"/><rect x="240" y="440" width="20" height="20" fill="#d62728"/><rect x="140" y="800" width="20" height="20" fill="#d62728"/><rect x="240" y="560" width="20" height="20" fill="#d62728"/><rect x="760" y="680" width="20" height="20" fill="#d62728"/><rect x="140" y="0" width="20" height="20" fill="#d62728"/><rect x="420" y="880" width="20" height="20" fill="#d62728"/><rect x="840" y="120" width="20" height="20" fill="#d62728"/><rect x="420" y="340" width="20" height="20" fill="#d62728"/><rect x="160" y="920" width="20" height="20" fill="#d62728"/><rect x="760" y="420" width="20" height="20" fill="#d62728"/><rect x="400" y="200" width="20" height="20" fill="#d62728"/><rect x="660" y="740" width="20" height="20" fill="#d62728"/><rect x="320" y="920" width="20" height="20" fill="#d62728"/><rect x="760" y="40" width="20" height="20" fill="#d62728"/><rect x="120" y="420" width="20" height="20" fill="#d62728"/><rect x="400" y="0" width="20" height="20" fill="#d62728"/><rect x="300" y="900" width="20" height="20" fill="#d62728"/><rect x="740" y="600" width="20" height="20" fill="#d62728"/><rect x="240" y="900" width="20" height="20" fill="#d62728"/><rect x="520" y="280" width="20" height="20" fill="#d62728"/><rect x="220" y="120" width="20" height="20" fill="#d62728"/><rect x="780" y="200" width="20" height="20" fill="#d62728"/><rect x="260" y="100" width="20" height="20" fill="#d62728"/><rect x="860" y="400" width="20" height="20" fill="#d62728"/><rect x="680" y="840" width="20" height="20" fill="#d62728"/><rect x="320" y="500" width="20" height="20" fill="#d62728"/><rect x="940" y="860" width="20" height="20" fill="#d62728"/><rect x="80" y="540" width="20" height="20" fill="#d62728"/><rect x="900" y="340" width="20" height="20" fill="#d62728"/><rect x="940" y="280" width="20" height="20" fill="#d62728"/><rect x="260" y="960" width="20" height="20" fill="#d62728"/><rect x="640" y="120" width="20" height="20" fill="#d62728"/><rect x="140" y="740" width="20" height="20" fill="black"/><rect x="420" y="780" width="20" height="20" fill="black"/><rect x="540" y="240" width="20" height="20" fill="black"/><rect x="640" y="820" width="20" height="20" fill="black"/><rect x="80" y="720" width="20" height="20" fill="black"/><rect x="740" y="0" width="20" height="20" fill="black"/><rect x="80" y="0" width="20" height="20" fill="black"/><rect x="880" y="560" width="20" height="20" fill="black"/><rect x="800" y="880" width="20" height="20" fill="black"/><rect x="560" y="920" width="20" height="20" fill="black"/><rect x="380" y="120" width="20" height="20" fill="black"/><rect x="540" y="600" width="20" height="20" fill="black"/><rect x="820" y="700" width="20" height="20" fill="black"/><rect x="160" y="740" width="20" height="20" fill="black"/><rect x="80" y="820" width="20" height="20" fill="black"/><rect x="880" y="620" width="20" height="20" fill="black"/><rect x="980" y="120" width="20" height="20" fill="black"/><rect x="520" y="720" width="20" height="20" fill="black"/><rect x="480" y="560" width="20" height="20" fill="black"/><rect x="160" y="920" width="20" height="20" fill="black"/><rect x="580" y="280" width="20" height="20" fill="black"/><rect x="540" y="860" width="20" height="20" fill="black"/><rect x="580" y="920" width="20" height="20" fill="black"/><rect x="900" y="420" width="20" height="20" fill="black"/><rect x="460" y="440" width="20" height="20" fill="black"/><rect x="340" y="700" width="20" height="20" fill="black"/><rect x="80" y="80" width="20" height="20" fill="black"/><rect x="560" y="80" width="20" height="20" fill="black"/><rect x="540" y="280" width="20" height="20" fill="black"/><rect x="980" y="920" width="20" height="20" fill="black"/><rect x="840" y="40" width="20" height="20" fill="black"/><rect x="880" y="660" width="20" height="20" fill="black"/><rect x="640" y="620" width="20" height="20" fill="black"/><rect x="140" y="640" width="20" height="20" fill="black"/><rect x="400" y="60" width="20" height="20" fill="black"/><rect x="960" y="800" width="20" height="20" fill="black"/><rect x="120" y="700" width="20" height="20" fill="black"/><rect x="800" y="780" width="20" height="20" fill="black"/><rect x="600" y="480" width="20" height="20" fill="black"/><rect x="360" y="560" width="20" height="20" fill="black"/><rect x="860" y="60" width="20" height="20" fill="black"/><rect x="440" y="220" width="20" height="20" fill="black"/><rect x="160" y="420" width="20" height="20" fill="black"/><rect x="600" y="660" width="20" height="20" fill="black"/><rect x="720" y="940" width="20" height="20" fill="black"/><rect x="480" y="20" width="20" height="20" fill="black"/><rect x="20" y="920" width="20" height="20" fill="black"/><rect x="460" y="620" width="20" height="20" fill="black"/><rect x="720" y="40" width="20" height="20" fill="black"/><rect x="640" y="180" width="20" height="20" fill="black"/></svg>