<svg xmlns="http://www.w3.org/2000/svg" width="1000" height="1000"><rect x="0" y="0" width="1000" height="1000" fill="white"/><rect x="560" y="-60" width="20" height="20" fill="#1f77b4"/><rect x="980" y="-80" width="20" height="20" fill="#d62728"/><rect x="100" y="-60" width="20" height="20" fill="#d62728"/><rect x="0" y="-60" width="20" height="20" fill="#d62728"/><rect x="980" y="-60" width="20" height="20" fill="#d62728"/><rect x="120" y="-60" width="20" height="20" fill="#d62728"/><rect x="440" y="-60" width="20" height="20" fill="#2ca02c"/><rect x="560" y="-40" width="20" height="20" fill="#1f77b4"/><rect x="880" y="-40" width="20" height="20" fill="#d62728"/><rect x="940" y="-80" width="20" height="20" fill="#d62728"/><rect x="500" y="-40" width="20" height="20" fill="#1f77b4"/><rect x="140" y="-40" width="20" height="20" fill="#d62728"/><rect x="860" y="-40" width="20" height="20" fill="#d62728"/><rect x="960" y="-80" width="20" height="20" fill="#d62728"/><rect x="820" y="840" width="20" height="20" fill="#d62728"/><rect x="880" y="980" width="20" height="20" fill="#d62728"/><rect x="880" y="900" width="20" height="20" fill="#d62728"/><rect x="300" y="640" width="20" height="20" fill="#ff7f0e"/><rect x="520" y="-20" width="20" height="20" fill="#1f77b4"/><rect x="880" y="-20" width="20" height="20" fill="#d62728"/><rect x="780" y="140" width="20" height="20" fill="#ff7f0e"/><rect x="760" y="120" width="20" height="20" fill="#ff7f0e"/><rect x="100" y="200" width="20" height="20" fill="#1f77b4"/><rect x="740" y="300" width="20" height="20" fill="#1f77b4"/><rect x="760" y="140" width="20" height="20" fill="#ff7f0e"/><rect x="820" y="860" width="20" height="20" fill="#d62728"/><rect x="760" y="380" width="20" height="20" fill="#1f77b4"/><rect x="880" y="840" width="20" height="20" fill="#d62728"/><rect x="800" y="880" width="20" height="20" fill="#d62728"/><rect x="880" y="940" width="20" height="20" fill="#d62728"/><rect x="80" y="180" width="20" height="20" fill="#1f77b4"/><rect x="220" y="440" width="20" height="20" fill="#ff7f0e"/><rect x="820" y="880" width="20" height="20" fill="#d62728"/><rect x="700" y="300" width="20" height="20" fill="#1f77b4"/><rect x="800" y="900" width="20" height="20" fill="#d62728"/><rect x="880" y="860" width="20" height="20" fill="#d62728"/><rect x="860" y="860" width="20" height="20" fill="#d62728"/><rect x="360" y="660" width="20" height="20" fill="#ff7f0e"/><rect x="860" y="880" width="20" height="20" fill="#d62728"/><rect x="340" y="600" width="20" height="20" fill="#ff7f0e"/><rect x="100" y="320" width="20" height="20" fill="#2ca02c"/><rect x="800" y="840" width="20" height="20" fill="#d62728"/><rect x="100" y="180" width="20" height="20" fill="#1f77b4"/><rect x="20" y="840" width="20" height="20" fill="#d62728"/><rect x="500" y="420" width="20" height="20" fill="#ff7f0e"/><rect x="740" y="740" width="20" height="20" fill="#2ca02c"/><rect x="780" y="260" width="20" height="20" fill="#1f77b4"/><rect x="880" y="780" width="20" height="20" fill="#d62728"/><rect x="20" y="820" width="20" height="20" fill="#d62728"/><rect x="720" y="320" width="20" height="20" fill="#1f77b4"/><rect x="720" y="160" width="20" height="20" fill="#1f77b4"/><rect x="860" y="940" width="20" height="20" fill="#d62728"/><rect x="960" y="-60" width="20" height="20" fill="#d62728"/><rect x="320" y="660" width="20" height="20" fill="#ff7f0e"/><rect x="460" y="680" width="20" height="20" fill="#2ca02c"/><rect x="120" y="420" width="20" height="20" fill="#2ca02c"/><rect x="200" y="840" width="20" height="20" fill="#d62728"/><rect x="480" y="300" width="20" height="20" fill="#ff7f0e"/><rect x="340" y="660" width="20" height="20" fill="#ff7f0e"/><rect x="420" y="340" width="20" height="20" fill="#ff7f0e"/><rect x="280" y="640" width="20" height="20" fill="#ff7f0e"/><rect x="560" y="320" width="20" height="20" fill="#ff7f0e"/><rect x="0" y="520" width="20" height="20" fill="#2ca02c"/><rect x="900" y="920" width="20" height="20" fill="#d62728"/><rect x="900" y="880" width="20" height="20" fill="#d62728"/><rect x="460" y="380" width="20" height="20" fill="#ff7f0e"/><rect x="660" y="400" width="20" height="20" fill="#1f77b4"/><rect x="860" y="0" width="20" height="20" fill="#d62728"/><rect x="480" y="780" width="20" height="20" fill="#2ca02c"/><rect x="60" y="200" width="20" height="20" fill="#1f77b4"/><rect x="840" y="840" width="20" height="20" fill="#d62728"/><rect x="900" y="780" width="20" height="20" fill="#d62728"/><rect x="880" y="920" width="20" height="20" fill="#d62728"/><rect x="920" y="20" width="20" height="20" fill="#1f77b4"/><rect x="720" y="200" width="20" height="20" fill="#1f77b4"/><rect x="700" y="640" width="20" height="20" fill="#2ca02c"/><rect x="840" y="980" width="20" height="20" fill="#d62728"/><rect x="840" y="940" width="20" height="20" fill="#d62728"/><rect x="820" y="920" width="20" height="20" fill="#d62728"/><rect x="700" y="280" width="20" height="20" fill="#1f77b4"/><rect x="160" y="900" width="20" height="20" fill="#d62728"/><rect x="460" y="300" width="20" height="20" fill="#ff7f0e"/><rect x="480" y="480" width="20" height="20" fill="#ff7f0e"/><rect x="800" y="960" width="20" height="20" fill="#d62728"/><rect x="720" y="820" width="20" height="20" fill="#2ca02c"/><rect x="900" y="960" width="20" height="20" fill="#d62728"/><rect x="500" y="240" width="20" height="20" fill="#ff7f0e"/><rect x="500" y="220" width="20" height="20" fill="#ff7f0e"/><rect x="640" y="420" width="20" height="20" fill="#1f77b4"/><rect x="800" y="360" width="20" height="20" fill="#1f77b4"/><rect x="620" y="60" width="20" height="20" fill="#ff7f0e"/><rect x="800" y="800" width="20" height="20" fill="#d62728"/><rect x="900" y="460" width="20" height="20" fill="#2ca02c"/><rect x="760" y="840" width="20" height="20" fill="#d62728"/><rect x="680" y="880" width="20" height="20" fill="#2ca02c"/><rect x="140" y="460" width="20" height="20" fill="#ff7f0e"/><rect x="240" y="320" width="20" height="20" fill="#1f77b4"/><rect x="240" y="340" width="20" height="20" fill="#1f77b4"/><rect x="440" y="700" width="20" height="20" fill="#2ca02c"/><rect x="720" y="980" width="20" height="20" fill="#2ca02c"/><rect x="220" y="820" width="20" height="20" fill="#d62728"/><rect x="780" y="120" width="20" height="20" fill="#ff7f0e"/><rect x="880" y="960" width="20" height="20" fill="#d62728"/><rect x="880" y="0" width="20" height="20" fill="#d62728"/><rect x="400" y="660" width="20" height="20" fill="#ff7f0e"/><rect x="700" y="860" width="20" height="20" fill="#2ca02c"/><rect x="360" y="680" width="20" height="20" fill="#ff7f0e"/><rect x="340" y="680" width="20" height="20" fill="#ff7f0e"/><rect x="680" y="640" width="20" height="20" fill="#2ca02c"/><rect x="140" y="320" width="20" height="20" fill="#2ca02c"/><rect x="780" y="220" width="20" height="20" fill="#1f77b4"/><rect x="320" y="940" width="20" height="20" fill="#d62728"/><rect x="720" y="180" width="20" height="20" fill="#1f77b4"/><rect x="240" y="920" width="20" height="20" fill="#d62728"/><rect x="840" y="0" width="20" height="20" fill="#d62728"/><rect x="460" y="620" width="20" height="20" fill="#ff7f0e"/><rect x="80" y="220" width="20" height="20" fill="#1f77b4"/><rect x="20" y="880" width="20" height="20" fill="#d62728"/><rect x="960" y="440" width="20" height="20" fill="#2ca02c"/><rect x="900" y="980" width="20" height="20" fill="#d62728"/><rect x="0" y="920" width="20" height="20" fill="#d62728"/><rect x="700" y="220" width="20" height="20" fill="#1f77b4"/><rect x="80" y="480" width="20" height="20" fill="#ff7f0e"/><rect x="400" y="480" width="20" height="20" fill="#ff7f0e"/><rect x="740" y="720" width="20" height="20" fill="#2ca02c"/><rect x="700" y="160" width="20" height="20" fill="#1f77b4"/><rect x="80" y="500" width="20" height="20" fill="#ff7f0e"/><rect x="760" y="160" width="20" height="20" fill="#ff7f0e"/><rect x="60" y="140" width="20" height="20" fill="#1f77b4"/><rect x="260" y="340" width="20" height="20" fill="#1f77b4"/><rect x="900" y="520" width="20" height="20" fill="#2ca02c"/><rect x="620" y="120" width="20" height="20" fill="#ff7f0e"/><rect x="640" y="120" width="20" height="20" fill="#ff7f0e"/><rect x="600" y="100" width="20" height="20" fill="#ff7f0e"/><rect x="940" y="520" width="20" height="20" fill="#2ca02c"/><rect x="920" y="860" width="20" height="20" fill="#d62728"/><rect x="740" y="80" width="20" height="20" fill="#ff7f0e"/><rect x="920" y="500" width="20" height="20" fill="#2ca02c"/><rect x="940" y="540" width="20" height="20" fill="#2ca02c"/><rect x="680" y="960" width="20" height="20" fill="#2ca02c"/><rect x="400" y="360" width="20" height="20" fill="#ff7f0e"/><rect x="680" y="900" width="20" height="20" fill="#2ca02c"/><rect x="720" y="140" width="20" height="20" fill="#1f77b4"/><rect x="440" y="580" width="20" height="20" fill="#ff7f0e"/><rect x="420" y="580" width="20" height="20" fill="#ff7f0e"/><rect x="920" y="140" width="20" height="20" fill="#1f77b4"/><rect x="160" y="560" width="20" height="20" fill="#2ca02c"/><rect x="860" y="840" width="20" height="20" fill="#d62728"/><rect x="680" y="180" width="20" height="20" fill="#1f77b4"/><rect x="700" y="980" width="20" height="20" fill="#2ca02c"/><rect x="260" y="560" width="20" height="20" fill="#ff7f0e"/><rect x="180" y="460" width="20" height="20" fill="#ff7f0e"/><rect x="320" y="620" width="20" height="20" fill="#ff7f0e"/><rect x="140" y="600" width="20" height="20" fill="#2ca02c"/><rect x="120" y="160" width="20" height="20" fill="#1f77b4"/><rect x="280" y="240" width="20" height="20" fill="#1f77b4"/><rect x="700" y="200" width="20" height="20" fill="#1f77b4"/><rect x="680" y="200" width="20" height="20" fill="#1f77b4"/><rect x="500" y="460" width="20" height="20" fill="#ff7f0e"/><rect x="880" y="300" width="20" height="20" fill="#1f77b4"/><rect x="960" y="460" width="20" height="20" fill="#2ca02c"/><rect x="160" y="340" width="20" height="20" fill="#2ca02c"/><rect x="620" y="100" width="20" height="20" fill="#ff7f0e"/><rect x="880" y="420" width="20" height="20" fill="#1f77b4"/><rect x="300" y="520" width="20" height="20" fill="#ff7f0e"/><rect x="920" y="600" width="20" height="20" fill="#2ca02c"/><rect x="760" y="740" width="20" height="20" fill="#2ca02c"/><rect x="80" y="200" width="20" height="20" fill="#1f77b4"/><rect x="900" y="480" width="20" height="20" fill="#2ca02c"/><rect x="440" y="720" width="20" height="20" fill="#2ca02c"/><rect x="800" y="380" width="20" height="20" fill="#1f77b4"/><rect x="60" y="180" width="20" height="20" fill="#1f77b4"/><rect x="60" y="160" width="20" height="20" fill="#1f77b4"/><rect x="780" y="720" width="20" height="20" fill="#2ca02c"/><rect x="60" y="500" width="20" height="20" fill="#ff7f0e"/><rect x="700" y="440" width="20" height="20" fill="#1f77b4"/><rect x="440" y="660" width="20" height="20" fill="#2ca02c"/><rect x="720" y="-20" width="20" height="20" fill="#2ca02c"/><rect x="640" y="460" width="20" height="20" fill="#1f77b4"/><rect x="480" y="760" width="20" height="20" fill="#2ca02c"/><rect x="680" y="460" width="20" height="20" fill="#1f77b4"/><rect x="860" y="780" width="20" height="20" fill="#d62728"/><rect x="180" y="480" width="20" height="20" fill="#ff7f0e"/><rect x="840" y="900" width="20" height="20" fill="#d62728"/><rect x="840" y="400" width="20" height="20" fill="#1f77b4"/><rect x="80" y="120" width="20" height="20" fill="#1f77b4"/><rect x="840" y="920" width="20" height="20" fill="#d62728"/><rect x="780" y="900" width="20" height="20" fill="#d62728"/><rect x="580" y="120" width="20" height="20" fill="#ff7f0e"/><rect x="300" y="500" width="20" height="20" fill="#ff7f0e"/><rect x="700" y="920" width="20" height="20" fill="#2ca02c"/><rect x="0" y="540" width="20" height="20" fill="#2ca02c"/><rect x="740" y="900" width="20" height="20" fill="#2ca02c"/><rect x="800" y="200" width="20" height="20" fill="#1f77b4"/><rect x="720" y="900" width="20" height="20" fill="#2ca02c"/><rect x="720" y="280" width="20" height="20" fill="#1f77b4"/><rect x="300" y="260" width="20" height="20" fill="#1f77b4"/><rect x="640" y="920" width="20" height="20" fill="#2ca02c"/><rect x="760" y="100" width="20" height="20" fill="#ff7f0e"/><rect x="660" y="660" width="20" height="20" fill="#2ca02c"/><rect x="700" y="900" width="20" height="20" fill="#2ca02c"/><rect x="800" y="240" width="20" height="20" fill="#1f77b4"/><rect x="280" y="480" width="20" height="20" fill="#ff7f0e"/><rect x="800" y="100" width="20" height="20" fill="#ff7f0e"/><rect x="320" y="220" width="20" height="20" fill="#1f77b4"/><rect x="780" y="780" width="20" height="20" fill="#d62728"/><rect x="280" y="460" width="20" height="20" fill="#ff7f0e"/><rect x="760" y="300" width="20" height="20" fill="#1f77b4"/><rect x="340" y="640" width="20" height="20" fill="#ff7f0e"/><rect x="920" y="540" width="20" height="20" fill="#2ca02c"/><rect x="720" y="260" width="20" height="20" fill="#1f77b4"/><rect x="480" y="200" width="20" height="20" fill="#ff7f0e"/><rect x="380" y="340" width="20" height="20" fill="#ff7f0e"/><rect x="380" y="680" width="20" height="20" fill="#ff7f0e"/><rect x="720" y="660" width="20" height="20" fill="#2ca02c"/><rect x="680" y="220" width="20" height="20" fill="#1f77b4"/><rect x="900" y="580" width="20" height="20" fill="#2ca02c"/><rect x="20" y="580" width="20" height="20" fill="#2ca02c"/><rect x="240" y="960" width="20" height="20" fill="#d62728"/><rect x="780" y="380" width="20" height="20" fill="#1f77b4"/><rect x="980" y="560" width="20" height="20" fill="#2ca02c"/><rect x="320" y="380" width="20" height="20" fill="#ff7f0e"/><rect x="680" y="860" width="20" height="20" fill="#2ca02c"/><rect x="900" y="600" width="20" height="20" fill="#2ca02c"/><rect x="500" y="320" width="20" height="20" fill="#ff7f0e"/><rect x="940" y="440" width="20" height="20" fill="#2ca02c"/><rect x="900" y="660" width="20" height="20" fill="#2ca02c"/><rect x="220" y="960" width="20" height="20" fill="#d62728"/><rect x="580" y="80" width="20" height="20" fill="#ff7f0e"/><rect x="180" y="920" width="20" height="20" fill="#d62728"/><rect x="920" y="620" width="20" height="20" fill="#2ca02c"/><rect x="100" y="520" width="20" height="20" fill="#ff7f0e"/><rect x="980" y="640" width="20" height="20" fill="#2ca02c"/><rect x="500" y="260" width="20" height="20" fill="#ff7f0e"/><rect x="0" y="640" width="20" height="20" fill="#2ca02c"/><rect x="120" y="880" width="20" height="20" fill="#d62728"/><rect x="700" y="840" width="20" height="20" fill="#2ca02c"/><rect x="680" y="820" width="20" height="20" fill="#2ca02c"/><rect x="860" y="460" width="20" height="20" fill="#1f77b4"/><rect x="640" y="440" width="20" height="20" fill="#1f77b4"/><rect x="760" y="540" width="20" height="20" fill="#1f77b4"/><rect x="320" y="580" width="20" height="20" fill="#ff7f0e"/><rect x="660" y="420" width="20" height="20" fill="#1f77b4"/><rect x="460" y="220" width="20" height="20" fill="#ff7f0e"/><rect x="680" y="940" width="20" height="20" fill="#2ca02c"/><rect x="720" y="500" width="20" height="20" fill="#1f77b4"/><rect x="60" y="380" width="20" height="20" fill="#2ca02c"/><rect x="900" y="620" width="20" height="20" fill="#2ca02c"/><rect x="900" y="320" width="20" height="20" fill="#1f77b4"/><rect x="200" y="920" width="20" height="20" fill="#d62728"/><rect x="680" y="920" width="20" height="20" fill="#2ca02c"/><rect x="660" y="920" width="20" height="20" fill="#2ca02c"/><rect x="680" y="560" width="20" height="20" fill="#d62728"/><rect x="700" y="940" width="20" height="20" fill="#2ca02c"/><rect x="740" y="500" width="20" height="20" fill="#1f77b4"/><rect x="140" y="900" width="20" height="20" fill="#d62728"/><rect x="720" y="940" width="20" height="20" fill="#2ca02c"/><rect x="720" y="520" width="20" height="20" fill="#1f77b4"/><rect x="60" y="880" width="20" height="20" fill="#d62728"/><rect x="20" y="800" width="20" height="20" fill="#d62728"/><rect x="700" y="580" width="20" height="20" fill="#d62728"/><rect x="180" y="440" width="20" height="20" fill="#ff7f0e"/><rect x="660" y="200" width="20" height="20" fill="#1f77b4"/><rect x="700" y="560" width="20" height="20" fill="#d62728"/><rect x="800" y="480" width="20" height="20" fill="#1f77b4"/><rect x="80" y="900" width="20" height="20" fill="#d62728"/><rect x="120" y="280" width="20" height="20" fill="#2ca02c"/><rect x="620" y="140" width="20" height="20" fill="#ff7f0e"/><rect x="20" y="320" width="20" height="20" fill="#2ca02c"/><rect x="180" y="820" width="20" height="20" fill="#d62728"/><rect x="380" y="500" width="20" height="20" fill="#ff7f0e"/><rect x="660" y="140" width="20" height="20" fill="#ff7f0e"/><rect x="120" y="400" width="20" height="20" fill="#2ca02c"/><rect x="400" y="520" width="20" height="20" fill="#ff7f0e"/><rect x="700" y="180" width="20" height="20" fill="#1f77b4"/><rect x="960" y="560" width="20" height="20" fill="#2ca02c"/><rect x="140" y="920" width="20" height="20" fill="#d62728"/><rect x="580" y="160" width="20" height="20" fill="#ff7f0e"/><rect x="840" y="-20" width="20" height="20" fill="#d62728"/><rect x="440" y="500" width="20" height="20" fill="#ff7f0e"/><rect x="580" y="140" width="20" height="20" fill="#ff7f0e"/><rect x="780" y="480" width="20" height="20" fill="#1f77b4"/><rect x="0" y="440" width="20" height="20" fill="#2ca02c"/><rect x="420" y="500" width="20" height="20" fill="#ff7f0e"/><rect x="760" y="480" width="20" height="20" fill="#1f77b4"/><rect x="700" y="320" width="20" height="20" fill="#1f77b4"/><rect x="100" y="300" width="20" height="20" fill="#2ca02c"/><rect x="680" y="420" width="20" height="20" fill="#1f77b4"/><rect x="880" y="620" width="20" height="20" fill="#2ca02c"/><rect x="480" y="460" width="20" height="20" fill="#ff7f0e"/><rect x="800" y="460" width="20" height="20" fill="#1f77b4"/><rect x="560" y="140" width="20" height="20" fill="#ff7f0e"/><rect x="880" y="600" width="20" height="20" fill="#2ca02c"/><rect x="0" y="800" width="20" height="20" fill="#d62728"/><rect x="820" y="480" width="20" height="20" fill="#1f77b4"/><rect x="80" y="360" width="20" height="20" fill="#2ca02c"/><rect x="720" y="560" width="20" height="20" fill="#d62728"/><rect x="700" y="400" width="20" height="20" fill="#1f77b4"/><rect x="160" y="460" width="20" height="20" fill="#ff7f0e"/><rect x="80" y="320" width="20" height="20" fill="#2ca02c"/><rect x="580" y="280" width="20" height="20" fill="#ff7f0e"/><rect x="700" y="40" width="20" height="20" fill="#ff7f0e"/><rect x="680" y="580" width="20" height="20" fill="#d62728"/><rect x="120" y="500" width="20" height="20" fill="#ff7f0e"/><rect x="680" y="600" width="20" height="20" fill="#d62728"/><rect x="960" y="480" width="20" height="20" fill="#2ca02c"/><rect x="780" y="700" width="20" height="20" fill="#2ca02c"/><rect x="140" y="480" width="20" height="20" fill="#ff7f0e"/><rect x="380" y="460" width="20" height="20" fill="#ff7f0e"/><rect x="180" y="900" width="20" height="20" fill="#d62728"/><rect x="360" y="320" width="20" height="20" fill="#ff7f0e"/><rect x="720" y="480" width="20" height="20" fill="#1f77b4"/><rect x="200" y="480" width="20" height="20" fill="#ff7f0e"/><rect x="660" y="580" width="20" height="20" fill="#d62728"/><rect x="740" y="320" width="20" height="20" fill="#1f77b4"/><rect x="980" y="480" width="20" height="20" fill="#2ca02c"/><rect x="40" y="580" width="20" height="20" fill="#2ca02c"/><rect x="880" y="800" width="20" height="20" fill="#d62728"/><rect x="40" y="820" width="20" height="20" fill="#d62728"/><rect x="220" y="420" width="20" height="20" fill="#ff7f0e"/><rect x="900" y="840" width="20" height="20" fill="#d62728"/><rect x="900" y="40" width="20" height="20" fill="#1f77b4"/><rect x="960" y="540" width="20" height="20" fill="#2ca02c"/><rect x="860" y="820" width="20" height="20" fill="#d62728"/><rect x="680" y="380" width="20" height="20" fill="#1f77b4"/><rect x="260" y="460" width="20" height="20" fill="#ff7f0e"/><rect x="20" y="560" width="20" height="20" fill="#2ca02c"/><rect x="980" y="520" width="20" height="20" fill="#2ca02c"/><rect x="540" y="300" width="20" height="20" fill="#ff7f0e"/><rect x="200" y="440" width="20" height="20" fill="#ff7f0e"/><rect x="220" y="980" width="20" height="20" fill="#d62728"/><rect x="780" y="280" width="20" height="20" fill="#1f77b4"/><rect x="780" y="820" width="20" height="20" fill="#d62728"/><rect x="240" y="440" width="20" height="20" fill="#ff7f0e"/><rect x="720" y="460" width="20" height="20" fill="#1f77b4"/><rect x="240" y="940" width="20" height="20" fill="#d62728"/><rect x="700" y="520" width="20" height="20" fill="#1f77b4"/><rect x="860" y="580" width="20" height="20" fill="#2ca02c"/><rect x="960" y="580" width="20" height="20" fill="#2ca02c"/><rect x="700" y="460" width="20" height="20" fill="#1f77b4"/><rect x="660" y="440" width="20" height="20" fill="#1f77b4"/><rect x="760" y="360" width="20" height="20" fill="#1f77b4"/><rect x="860" y="360" width="20" height="20" fill="#1f77b4"/><rect x="800" y="820" width="20" height="20" fill="#d62728"/><rect x="820" y="400" width="20" height="20" fill="#1f77b4"/><rect x="300" y="460" width="20" height="20" fill="#ff7f0e"/><rect x="120" y="480" width="20" height="20" fill="#ff7f0e"/><rect x="780" y="360" width="20" height="20" fill="#1f77b4"/><rect x="500" y="660" width="20" height="20" fill="#2ca02c"/><rect x="880" y="320" width="20" height="20" fill="#1f77b4"/><rect x="480" y="680" width="20" height="20" fill="#2ca02c"/><rect x="720" y="340" width="20" height="20" fill="#1f77b4"/><rect x="100" y="600" width="20" height="20" fill="#2ca02c"/><rect stroke="black" stroke-width="3" x="101.5" y="601.5" width="17" height="17" fill="transparent"/><rect x="320" y="80" width="20" height="20" fill="#2ca02c"/><rect stroke="black" stroke-width="3" x="321.5" y="81.5" width="17" height="17" fill="transparent"/><rect x="280" y="380" width="20" height="20" fill="#2ca02c"/><rect stroke="black" stroke-width="3" x="281.5" y="381.5" width="17" height="17" fill="transparent"/><rect x="0" y="880" width="20" height="20" fill="#1f77b4"/><rect stroke="black" stroke-width="3" x="1.5" y="881.5" width="17" height="17" fill="transparent"/><rect x="880" y="680" width="20" height="20" fill="#2ca02c"/><rect stroke="black" stroke-width="3" x="881.5" y="681.5" width="17" height="17" fill="transparent"/><rect x="780" y="520" width="20" height="20" fill="#2ca02c"/><rect stroke="black" stroke-width="3" x="781.5" y="521.5" width="17" height="17" fill="transparent"/><rect x="460" y="920" width="20" height="20" fill="#d62728"/><rect stroke="black" stroke-width="3" x="461.5" y="921.5" width="17" height="17" fill="transparent"/><rect x="940" y="340" width="20" height="20" fill="#1f77b4"/><rect stroke="black" stroke-width="3" x="941.5" y="341.5" width="17" height="17" fill="transparent"/><rect x="160" y="380" width="20" height="20" fill="#ff7f0e"/><rect stroke="black" stroke-width="3" x="161.5" y="381.5" width="17" height="17" fill="transparent"/><rect x="880" y="260" width="20" height="20" fill="#2ca02c"/><rect stroke="black" stroke-width="3" x="881.5" y="261.5" width="17" height="17" fill="transparent"/><rect x="940" y="800" width="20" height="20" fill="#ff7f0e"/><rect stroke="black" stroke-width="3" x="941.5" y="801.5" width="17" height="17" fill="transparent"/><rect x="60" y="720" width="20" height="20" fill="#2ca02c"/><rect stroke="black" stroke-width="3" x="61.5" y="721.5" width="17" height="17" fill="transparent"/><rect x="420" y="100" width="20" height="20" fill="#ff7f0e"/><rect stroke="black" stroke-width="3" x="421.5" y="101.5" width="17" height="17" fill="transparent"/><rect x="100" y="940" width="20" height="20" fill="#d62728"/><rect stroke="black" stroke-width="3" x="101.5" y="941.5" width="17" height="17" fill="transparent"/><rect x="800" y="920" width="20" height="20" fill="#ff7f0e"/><rect stroke="black" stroke-width="3" x="801.5" y="921.5" width="17" height="17" fill="transparent"/><rect x="620" y="240" width="20" height="20" fill="#ff7f0e"/><rect stroke="black" stroke-width="3" x="621.5" y="241.5" width="17" height="17" fill="transparent"/><rect x="740" y="160" width="20" height="20" fill="#2ca02c"/><rect stroke="black" stroke-width="3" x="741.5" y="161.5" width="17" height="17" fill="transparent"/><rect x="420" y="440" width="20" height="20" fill="#2ca02c"/><rect stroke="black" stroke-width="3" x="421.5" y="441.5" width="17" height="17" fill="transparent"/><rect x="300" y="320" width="20" height="20" fill="#1f77b4"/><rect stroke="black" stroke-width="3" x="301.5" y="321.5" width="17" height="17" fill="transparent"/><rect x="120" y="360" width="20" height="20" fill="#ff7f0e"/><rect stroke="black" stroke-width="3" x="121.5" y="361.5" width="17" height="17" fill="transparent"/><rect x="260" y="80" width="20" height="20" fill="#d62728"/><rect stroke="black" stroke-width="3" x="261.5" y="81.5" width="17" height="17" fill="transparent"/><rect x="680" y="0" width="20" height="20" fill="#d62728"/><rect stroke="black" stroke-width="3" x="681.5" y="1.5" width="17" height="17" fill="transparent"/><rect x="600" y="460" width="20" height="20" fill="#1f77b4"/><rect stroke="black" stroke-width="3" x="601.5" y="461.5" width="17" height="17" fill="transparent"/><rect x="580" y="420" width="20" height="20" fill="#1f77b4"/><rect stroke="black" stroke-width="3" x="581.5" y="421.5" width="17" height="17" fill="transparent"/><rect x="60" y="480" width="20" height="20" fill="#d62728"/><rect stroke="black" stroke-width="3" x="61.5" y="481.5" width="17" height="17" fill="transparent"/><rect x="360" y="860" width="20" height="20" fill="#2ca02c"/><rect stroke="black" stroke-width="3" x="361.5" y="861.5" width="17" height="17" fill="transparent"/><rect x="800" y="240" width="20" height="20" fill="#d62728"/><rect stroke="black" stroke-width="3" x="801.5" y="241.5" width="17" height="17" fill="transparent"/><rect x="400" y="700" width="20" height="20" fill="#2ca02c"/><rect stroke="black" stroke-width="3" x="401.5" y="701.5" width="17" height="17" fill="transparent"/><rect x="320" y="840" width="20" height="20" fill="#2ca02c"/><rect stroke="black" stroke-width="3" x="321.5" y="841.5" width="17" height="17" fill="transparent"/><rect x="920" y="460" width="20" height="20" fill="#1f77b4"/><rect stroke="black" stroke-width="3" x="921.5" y="461.5" width="17" height="17" fill="transparent"/><rect x="580" y="340" width="20" height="20" fill="#ff7f0e"/><rect stroke="black" stroke-width="3" x="581.5" y="341.5" width="17" height="17" fill="transparent"/><rect x="80" y="500" width="20" height="20" fill="#d62728"/><rect stroke="black" stroke-width="3" x="81.5" y="501.5" width="17" height="17" fill="transparent"/><rect x="280" y="860" width="20" height="20" fill="#ff7f0e"/><rect stroke="black" stroke-width="3" x="281.5" y="861.5" width="17" height="17" fill="transparent"/><rect x="720" y="320" width="20" height="20" fill="#ff7f0e"/><rect stroke="black" stroke-width="3" x="721.5" y="321.5" width="17" height="17" fill="transparent"/><rect x="260" y="440" width="20" height="20" fill="#ff7f0e"/><rect stroke="black" stroke-width="3" x="261.5" y="441.5" width="17" height="17" fill="transparent"/><rect x="100" y="500" width="20" height="20" fill="#d62728"/><rect stroke="black" stroke-width="3" x="101.5" y="501.5" width="17" height="17" fill="transparent"/><rect x="940" y="580" width="20" height="20" fill="#d62728"/><rect stroke="black" stroke-width="3" x="941.5" y="581.5" width="17" height="17" fill="transparent"/><rect x="140" y="720" width="20" height="20" fill="#ff7f0e"/><rect stroke="black" stroke-width="3" x="141.5" y="721.5" width="17" height="17" fill="transparent"/><rect x="300" y="680" width="20" height="20" fill="#1f77b4"/><rect stroke="black" stroke-width="3" x="301.5" y="681.5" width="17" height="17" fill="transparent"/><rect x="360" y="920" width="20" height="20" fill="#d62728"/><rect stroke="black" stroke-width="3" x="361.5" y="921.5" width="17" height="17" fill="transparent"/><rect x="760" y="120" width="20" height="20" fill="#1f77b4"/><rect stroke="black" stroke-width="3" x="761.5" y="121.5" width="17" height="17" fill="transparent"/><rect x="700" y="80" width="20" height="20" fill="#2ca02c"/><rect stroke="black" stroke-width="3" x="701.5" y="81.5" width="17" height="17" fill="transparent"/><rect x="760" y="340" width="20" height="20" fill="black"/><rect x="520" y="300" width="20" height="20" fill="#d62728"/><rect stroke="black" stroke-width="3" x="521.5" y="301.5" width="17" height="17" fill="transparent"/><rect x="580" y="680" width="20" height="20" fill="#1f77b4"/><rect stroke="black" stroke-width="3" x="581.5" y="681.5" width="17" height="17" fill="transparent"/><rect x="220" y="220" width="20" height="20" fill="#1f77b4"/><rect stroke="black" stroke-width="3" x="221.5" y="221.5" width="17" height="17" fill="transparent"/><rect x="440" y="840" width="20" height="20" fill="#1f77b4"/><rect stroke="black" stroke-width="3" x="441.5" y="841.5" width="17" height="17" fill="transparent"/><rect x="780" y="280" width="20" height="20" fill="#ff7f0e"/><rect stroke="black" stroke-width="3" x="781.5" y="281.5" width="17" height="17" fill="transparent"/><rect x="900" y="80" width="20" height="20" fill="black"/><rect x="700" y="620" width="20" height="20" fill="#2ca02c"/><rect stroke="black" stroke-width="3" x="701.5" y="621.5" width="17" height="17" fill="transparent"/></svg>